<?xml version="1.0" standalone="no"?>
<!DOCTYPE svg PUBLIC "-//W3C//DTD SVG 1.1//EN" "http://www.w3.org/Graphics/SVG/1.1/DTD/svg11.dtd" >
<!--
2013-9-30: Created.
-->
<svg>
<metadata>
Created by iconfont
</metadata>
<defs>

<font id="iconfont" horiz-adv-x="1024" >
  <font-face
    font-family="iconfont"
    font-weight="500"
    font-stretch="normal"
    units-per-em="1024"
    ascent="896"
    descent="-128"
  />
    <missing-glyph />
    
    <glyph glyph-name="xing-copy" unicode="&#58890;" d="M225.78935679-79.96251653000002c-6.69498558 0-12.88784826 3.01274397-17.23958881 8.03398347-4.35174057 5.02123951-6.02548665 11.7162251-5.02123953 18.41121068l52.55563887 306.63034944L33.30851438 470.03056809c-6.19286138 6.02548665-8.36873166 14.8963438-5.69073716 23.09770072s9.70772956 14.05947012 18.24383595 15.39846672l307.8019726 44.68903141 137.58195853 279.01353341c3.84961635 7.69923401 11.7162251 12.55309878 20.25233149 12.55309748s16.40271514-4.85386478 20.25233279-12.55309748L669.3321671 553.21576694l307.96934604-44.68903141c8.53610639-1.17162315 15.56584145-7.19710979 18.24383724-15.39846672 2.6779945-8.20135821 0.50212421-17.07221408-5.69073845-23.09770072L767.078959 252.94565233000003l52.55563886-306.63034944c1.50637134-8.53610639-2.00849555-17.07221408-9.03823061-22.0934536s-16.06796566-5.69073846-23.76719967-1.67374608l-275.33129179 144.77906833-275.33129049-144.77906833c-3.18011871-1.67374608-6.69498558-2.51061975-10.37722851-2.51061974zM97.58037835 470.532691L296.08670739 277.04760147c5.35598898-5.18861425 7.69923401-12.72047353 6.52761086-19.91758202l-46.8649004-273.15542151 245.37123074 128.8784774c6.52761085 3.51486818 14.39421959 3.51486818 20.92183044 0l245.37122944-129.04585214-46.8649004 273.1554215c-1.17162315 7.36448454 1.17162315 14.72896907 6.52761085 19.91758204l198.50632905 193.48509083-274.32704337 39.83516532c-7.36448454 1.00424842-13.72472064 5.69073846-16.90483935 12.38572276l-122.68561473 248.55134815-122.68561471-248.55134815c-3.34749344-6.69498558-9.70772956-11.21410089-16.90483936-12.38572276l-274.4944181-39.66779189z m0 0"  horiz-adv-x="1024" />

    
    <glyph glyph-name="start-copy" unicode="&#58892;" d="M511.1808096 859.29325653L623.88093227 495.85418987 988.58835307 495.85418987 693.53451947 271.23547733 806.23464213-92.20468053000002 511.1808096 132.41512320000004 216.1258848-92.20468053000002 328.82709867 271.23547733 33.77326613 495.85418987 398.47959467 495.85418987Z"  horiz-adv-x="1024" />

    
    <glyph glyph-name="tongji1" unicode="&#59150;" d="M168 256a40 40 0 0 1-40-40v-240a40 40 0 0 1 80 0V216a40 40 0 0 1-40 40z m229.33 256a40 40 0 0 1-40-40v-496a40 40 0 0 1 80 0V472a40 40 0 0 1-40 40zM856 512a40 40 0 0 1-40-40v-496a40 40 0 0 1 80 0V472a40 40 0 0 1-40 40zM626.67 320a40 40 0 0 1-40-40v-304a40 40 0 0 1 40-40 40 40 0 0 1 40 40V280a40 40 0 0 1-40 40zM920.33 832H776a40 40 0 0 1 0-80h47.5L631.14 561.89l-194.95 195a39.49 39.49 0 0 1-54.51 1.27q-0.82-0.74-1.62-1.53L75.72 452.24a39.85 39.85 0 0 1 56.36-56.36l276.17 276.18L600.34 480c0.69-0.82 1.4-1.61 2.16-2.38a39.59 39.59 0 0 1 20.82-11.12l0.54-0.09 1.16-0.2a39.42 39.42 0 0 1 33.18 10.5l0.61 0.58L880.33 696.1V648a40 40 0 0 1 80 0V792a40 40 0 0 1-40 40z"  horiz-adv-x="1024" />

    
    <glyph glyph-name="jizhenbeiandengji" unicode="&#58906;" d="M470.3 19.6H219.9c-39.5 0-71.8 34.1-71.8 75.8V670.1c0 41.7 32.3 75.8 71.8 75.8H703c39.5 0 71.8-34.1 71.8-75.8v-190.4c0-9.4 7.3-17 16.2-17 8.9 0 16.1 7.7 16.1 17V670.1c0 60.5-46.8 109.9-104.1 109.9H219.9c-57.3 0-104.1-49.4-104.1-109.9v-574.7c0-60.5 46.8-109.9 104.1-109.9h250.4c8.9 0 16.2 7.7 16.2 17 0 9.4-7.3 17.1-16.2 17.1z m-12.1 344.2H253.7c-9.7 0-17.8-8.5-17.8-18.7s8.1-18.8 17.8-18.8h204.5c9.7 0 17.8 8.5 17.8 18.8 0 10.2-8.1 18.7-17.8 18.7z m0-133.3H253.7c-9.7 0-17.8-8.5-17.8-18.7s8.1-18.7 17.8-18.7h204.5c9.7 0 17.8 8.5 17.8 18.7s-8.1 18.7-17.8 18.7zM904.3 325l-82.7 84.8c-0.4 0.4-0.8 0.8-1.2 0.8-0.4 0.5-0.8 0.9-1.6 1.3-0.4 0.4-1.2 0.4-1.6 0.8-0.4 0.4-0.8 0.4-1.6 0.9-0.4 0.4-1.2 0.4-1.6 0.4-0.4 0-0.8 0.4-1.6 0.4h-6.8c-0.5 0-1.2-0.4-1.6-0.4-0.4 0-0.8-0.4-1.6-0.4-0.4-0.4-1.2-0.4-1.6-0.9-0.5-0.4-0.8-0.4-1.2-0.8-0.4-0.4-1.2-0.8-1.6-1.3-0.5-0.4-0.8-0.4-1.2-0.8l-268-282.9c-2.5-2.6-3.7-5.5-4.5-8.5 0-0.4-0.4-0.8-0.4-1.3-2.8-12.3-12.9-61.8 1.2-89.9l1.2-2.6 2.1-2.1c10.1-10.6 25.8-13.6 43.5-13.6 15.3 0 31.9 2.6 48 4.7 3.7 0.4 6.9 0.8 10.1 1.3 0 0 4.8 3.4 6.8 5.1l267.4 278.2c2 2.1 3.2 4.3 4 6.8 0.5 0.4 0.8 1.7 0.8 2.6 1.3 6.4-0.3 12.8-4.7 17.4zM615.9 50.3h-0.8c-13.7-2.1-49.2-7.3-59.7-2.6-4.1 13.2-1.6 38.7 2 56.6l252.1 266.3 57.2-58.8-250.8-261.5zM470.3-20H219.9c-60.4 0-109.6 51.8-109.6 115.4V670.1c0 63.6 49.1 115.4 109.6 115.4H703c60.4 0 109.6-51.8 109.6-115.4v-190.4c0-12.4-9.7-22.5-21.6-22.5-11.9 0-21.7 10.1-21.7 22.5V670.1c0 38.8-29.7 70.3-66.3 70.3H219.9c-36.6 0-66.3-31.5-66.3-70.3v-574.7c0-38.8 29.7-70.3 66.3-70.3h250.4c11.9 0 21.7-10.1 21.7-22.5s-9.8-22.6-21.7-22.6zM219.9 774.5c-54.3 0-98.6-46.8-98.6-104.4v-574.7c0-57.6 44.2-104.4 98.6-104.4h250.4c5.9 0 10.7 5.2 10.7 11.5s-4.8 11.5-10.7 11.5H219.9c-42.6 0-77.3 36.5-77.3 81.3V670.1c0 44.8 34.7 81.3 77.3 81.3H703c42.6 0 77.3-36.5 77.3-81.3v-190.4c0-6.4 4.8-11.5 10.7-11.5 5.9 0 10.6 5.2 10.6 11.5V670.1c0 57.6-44.2 104.4-98.6 104.4H219.9zM572 3.4c-14.2 0-34.5 1.6-47.5 15.3l-2.7 2.8-1.5 3.3c-14.5 29.1-5.1 78.2-1.7 93.2 0.1 0.7 0.3 1.2 0.4 1.6l0.1 0.3c0.9 3.2 2.3 7.3 5.8 10.9l267.9 283c0.6 0.6 1.2 1 1.7 1.2 0.4 0.4 0.8 0.7 1.1 0.9l0.1 0.1c0.6 0.6 1.2 0.9 1.5 1.1 0.6 0.5 1.2 0.8 1.7 1.1l1 1h1.7c0.3 0.1 0.8 0.3 1.3 0.3 0.6 0.2 1.5 0.5 2.6 0.5h6.8c1.1 0 2-0.2 2.7-0.5 0.9-0.1 2.2-0.3 3.4-1.1 0.4-0.2 1.1-0.5 1.9-1 0.5-0.2 1-0.5 1.6-0.9 0.6-0.4 1.2-0.8 1.6-1.2 0.9-0.5 1.6-1.2 2-1.6l82.7-84.9c5.5-5.8 7.8-13.7 6.3-21.9-0.1-1-0.4-2.8-1.3-4.4-1-3-2.6-5.6-5-8.1L640.7 16l-0.2-0.2c-2.1-1.8-6.7-5-7.2-5.4l-1.1-0.8-1.3-0.2c-3.4-0.5-6.6-0.9-10.2-1.3-2.1-0.3-4.3-0.6-6.5-0.9-14.2-1.8-28.6-3.8-42.2-3.8z m-41 24.5l1.4-1.5c7.7-8.1 20.3-11.9 39.6-11.9 12.9 0 27 1.9 40.6 3.7l6.6 0.9c3.1 0.4 5.9 0.7 8.8 1.1 1.6 1.1 3.9 2.8 5.2 3.9l267.2 278c1.4 1.4 2.2 2.8 2.7 4.6l0.4 1.4 0.2 0.2 0.1 0.4c0.9 4.8-0.3 9.3-3.4 12.6l-81.8 83.9h-0.8l-1.6 2h-0.1l-0.2 0.1c-0.5 0.2-1.3 0.5-2 1.1-0.2 0.1-0.3 0.1-0.5 0.2-0.7 0.1-1.3 0.2-1.7 0.4h-5.4c-0.3-0.1-0.7-0.2-1.2-0.3-0.2-0.1-0.5-0.2-0.8-0.3-0.2-0.1-0.3-0.1-0.4-0.2l-0.9-0.6c-0.4-0.3-0.7-0.6-1-0.8l-0.3-0.3c-0.5-0.5-1-0.8-1.3-1L532.8 123.2c-1.4-1.4-2.3-3.2-3.1-5.9-0.1-0.6-0.3-1-0.4-1.4-6.4-28.1-9.6-65.5 0.7-86.2l0.1-0.2 0.9-1.6z m372.6 279.7z m-99.7 112zM570.5 40.3c-8 0-13.8 0.8-17.3 2.4l-2.3 1-0.7 2.4c-4.5 14.6-1.8 41.1 1.9 59.3l0.3 1.5 1.1 1.1 256 270.4 64.9-66.7-256.1-266.9h-2.7c-19.1-3-34.2-4.5-45.1-4.5zM560 52c5.1-1 18.6-1.9 53.4 3.5l245.7 256.2-49.5 50.9-247-261c-3.2-16.2-5.1-37.4-2.6-49.6zM458.2 187.5H253.7c-12.8 0-23.3 10.9-23.3 24.2 0 13.4 10.4 24.2 23.3 24.2h204.5c12.8 0 23.3-10.9 23.3-24.2 0-13.3-10.5-24.2-23.3-24.2zM253.7 225c-6.6 0-12.3-6.1-12.3-13.2 0-7.2 5.6-13.2 12.3-13.2h204.5c6.6 0 12.3 6.1 12.3 13.2 0 7.2-5.6 13.2-12.3 13.2H253.7z m204.5 95.8H253.7c-12.8 0-23.3 10.9-23.3 24.3s10.4 24.2 23.3 24.2h204.5c12.8 0 23.3-10.9 23.3-24.2 0-13.4-10.5-24.3-23.3-24.3z m-204.5 37.5c-6.6 0-12.3-6.1-12.3-13.2 0-7.2 5.6-13.3 12.3-13.3h204.5c6.6 0 12.3 6.1 12.3 13.3 0 7.2-5.6 13.2-12.3 13.2H253.7zM561.5 545.7H368c-6.5 0-11.8 5.3-11.8 11.8v29.9c0 6.5 5.3 11.8 11.8 11.8h193.5c6.5 0 11.8-5.3 11.8-11.8v-29.9c0-6.5-5.2-11.8-11.8-11.8zM561.5 540.2H368c-9.5 0-17.3 7.8-17.3 17.3v29.9c0 9.5 7.8 17.3 17.3 17.3h193.5c9.5 0 17.3-7.8 17.3-17.3v-29.9c0-9.5-7.7-17.3-17.3-17.3zM368 593.7c-3.5 0-6.3-2.8-6.3-6.3v-29.9c0-3.5 2.8-6.3 6.3-6.3h193.5c3.5 0 6.3 2.8 6.3 6.3v29.9c0 3.5-2.8 6.3-6.3 6.3H368zM438.9 472.6V672.2c0 6.5 5.3 11.8 11.8 11.8h29.9c6.5 0 11.8-5.3 11.8-11.8v-199.6c0-6.5-5.3-11.8-11.8-11.8h-29.9c-6.5 0-11.8 5.3-11.8 11.8zM480.6 455.3h-29.9c-9.5 0-17.3 7.8-17.3 17.3V672.2c0 9.5 7.8 17.3 17.3 17.3h29.9c9.5 0 17.3-7.8 17.3-17.3v-199.6c0-9.5-7.8-17.3-17.3-17.3z m-29.9 223.2c-3.5 0-6.3-2.8-6.3-6.3v-199.6c0-3.5 2.8-6.3 6.3-6.3h29.9c3.5 0 6.3 2.8 6.3 6.3V672.2c0 3.5-2.8 6.3-6.3 6.3h-29.9zM769.3 486h43.3v-28.8h-43.3zM462.904-19.969v45.1h29v-45.1z"  horiz-adv-x="1024" />

    
    <glyph glyph-name="zhijiandan1" unicode="&#58937;" d="M46.155-24.712V790.616c0 34.33 27.145 62.173 60.476 62.173h659.847c33.332 0 60.476-27.943 60.476-62.173v-283.618h39.918V790.616c0 56.883-45.007 103.288-100.394 103.288H106.631C51.245 893.904 6.237 847.5 6.237 790.616v-815.328C6.237-81.695 51.245-128 106.631-128h539.294v41.016H106.631c-33.331 0-60.476 27.943-60.476 62.272zM130.882 699.902h445.686v-39.918H130.882z m0-153.884h564.043V506.1H130.882z m0-154.284h232.922v-39.918H130.882z m621.325 87.121c-71.453 0-138.715-27.842-189.212-78.339-50.496-50.496-78.339-117.758-78.339-189.212s27.843-138.715 78.34-189.212 117.758-78.34 189.211-78.34 138.716 27.844 189.212 78.34 78.34 117.759 78.34 189.212-27.843 138.716-78.34 189.212c-50.596 50.497-117.758 78.34-189.212 78.34z m0-495.284c-125.542 0-227.733 102.19-227.733 227.733s102.19 227.633 227.733 227.633S979.94 336.747 979.94 211.204 877.75-16.429 752.207-16.429zM803.901 143.643c9.381 4.291 13.173 11.476 11.477 21.755-6.786 26.446-13.672 46.405-20.458 60.077-3.393 8.483-10.678 11.477-21.756 8.982-9.38-3.393-12.374-9.78-8.981-19.161 8.482-22.953 15.368-43.012 20.458-60.077 3.493-10.279 9.88-14.17 19.26-11.576zM824.36 350.618l-10.18 10.18c-13.672 11.077-26.845 9.78-39.618-3.793a4301.708 4301.708 0 0 1-26.845-30.637c-17.864-19.56-31.536-34.13-40.916-43.41 1.696 5.089 1.696 10.677 0 16.565-2.595 5.09-6.387 7.684-11.477 7.684h-21.755v46.006c-0.899 9.38-6.387 14.47-16.566 15.369-10.18-0.899-15.768-5.988-16.566-15.369v-46.006h-25.648c-9.38-0.898-14.47-6.386-15.368-16.566 0.798-11.077 5.987-17.065 15.368-17.863h22.953c-6.786-30.637-19.56-64.767-38.321-102.19-5.09-11.078-3.393-19.56 5.09-25.548 10.178-4.291 18.76-1.297 25.547 8.982 2.595 4.29 5.988 11.875 10.179 22.953v-98.399c0.798-9.38 6.387-14.07 16.566-14.07 10.18 0.897 15.768 5.987 16.566 15.368V213.899c5.09-10.18 11.077-18.762 17.863-25.548 6.787-5.987 13.573-5.588 20.458 1.298a589.567 589.567 0 0 0 17.864-54.988c4.291-9.38 11.476-12.773 21.755-10.179 9.381 4.291 12.774 11.876 10.18 22.953-5.988 22.155-13.673 44.708-22.954 67.761-2.594 4.291-6.786 6.387-12.773 6.387-6.786 0.798-11.976-0.898-15.369-5.09-1.696 2.595-4.291 6.387-7.684 11.477-4.291 6.786-7.285 11.876-8.982 15.368-7.684 10.18-14.47 13.573-20.458 10.18v19.16h23.352c-5.987-7.684-5.09-15.368 2.595-22.953 8.483-6.786 16.566-7.285 24.25-1.297 0.799-6.786 5.49-10.678 14.071-11.476h126.541c10.18 0.798 14.87 7.185 14.071 19.16 9.38-7.684 17.065-8.083 22.953-1.297 6.786 11.876 6.786 21.755 0 29.44-18.761 14.47-44.31 36.624-76.743 66.363z m-79.238-79.137l35.826 35.826c5.09 5.988 8.084 9.381 8.982 10.18 5.09 5.987 11.077 5.488 17.863-1.298 14.47-14.47 31.536-29.44 51.096-44.708H745.122zM888.228 110.411h-35.826c12.774 28.94 25.148 61.374 37.024 97.1 3.393 11.877 0 20.459-10.18 25.549-11.076 3.393-18.76-0.4-22.952-11.477-13.672-45.207-27.743-82.231-42.214-111.172H696.621c-9.38-0.898-14.47-6.387-15.368-16.566 0.798-11.077 6.387-17.065 16.566-17.863h190.41c9.38 0.898 14.47 6.786 15.368 17.863-0.798 10.18-5.988 15.668-15.369 16.566z"  horiz-adv-x="1024" />

    
    <glyph glyph-name="wenjian5" unicode="&#59040;" d="M733.866667 896H353.553067C286.993067 896 226.645333 835.242667 226.645333 768h-38.024533C122.197333 768 68.266667 707.242667 68.266667 640v-640C68.266667-67.1744 128.477867-128 195.037867-128h475.409066c66.56 0 126.839467 60.757333 126.839467 128h31.675733c66.56 0 126.7712 60.757333 126.7712 128v512L733.866667 896z m-63.419734-960.034133H195.037867c-31.675733 0-63.351467 32.085333-63.351467 64.034133V640c0 32.017067 28.4672 64.034133 60.2112 64.034133h34.816v-576.034133c0-67.1744 60.279467-128 126.839467-128H733.866667c0-32.017067-31.675733-64.034133-63.419734-64.034133z m221.866667 192.034133c0-32.017067-31.675733-64.034133-63.351467-64.034133H353.553067c-31.744 0-63.419733 32.085333-63.419734 64.034133V768c0 32.017067 31.675733 64.034133 63.419734 64.034133H670.378667v-128c0-67.242667 60.279467-128.068267 126.839466-128.068266h95.0272v-447.965867z m-95.0272 512c-34.884267 0-63.419733 60.757333-63.419733 95.982933V831.965867l158.446933-191.965867H797.354667zM733.866667 447.965867H448.580267c-18.978133 0-31.675733-12.765867-31.675734-31.9488 0-19.2512 12.6976-32.017067 31.675734-32.017067H733.866667c19.0464 0 31.675733 12.834133 31.675733 32.017067a31.9488 31.9488 0 0 1-31.675733 31.9488z m0-159.9488H448.580267c-18.978133 0-31.675733-12.834133-31.675734-32.017067 0-19.182933 12.6976-32.017067 31.675734-32.017067H733.866667c19.0464 0 31.675733 12.834133 31.675733 32.017067a31.9488 31.9488 0 0 1-31.675733 32.017067z"  horiz-adv-x="1024" />

    
    <glyph glyph-name="wenjian6" unicode="&#58910;" d="M839.168-75.776H384.512c-11.264 0-20.48 9.216-20.48 20.48s9.216 20.48 20.48 20.48h454.656c51.2 0 92.672 41.472 92.672 92.16v652.8c0 50.688-41.472 92.16-92.672 92.16H384.512c-51.2 0-92.672-41.472-92.672-92.16v-120.832c0-11.264-9.216-20.48-20.48-20.48s-20.48 9.216-20.48 20.48V710.144c0 73.728 59.904 133.12 133.632 133.12h454.656c73.728 0 133.632-59.904 133.632-133.12v-652.8c0-73.216-59.904-133.12-133.632-133.12zM654.848-75.776H184.832c-73.728 0-133.632 59.904-133.632 133.12V589.312c0 11.264 9.216 20.48 20.48 20.48h507.904c8.704 0 10.752-2.56 22.528-13.824l21.504-20.992 64.512-64.512c23.552-23.552 47.104-46.592 64.512-64.512l21.504-21.504c11.776-11.776 13.824-14.336 13.824-22.528v-344.576c0.512-73.216-59.392-133.12-133.12-133.12zM92.16 568.832v-511.488c0-50.688 41.472-92.16 92.672-92.16h470.016c51.2 0 92.672 41.472 92.672 92.16V393.728c-27.648 27.648-147.968 147.456-175.616 175.616H92.16zM768 381.44H580.096c-11.264 0-20.48 9.216-20.48 20.48V589.312c0 8.192 5.12 15.872 12.8 18.944 7.68 3.072 16.384 1.536 22.528-4.608l187.904-187.392c5.632-5.632 7.68-14.848 4.608-22.528-4.096-7.168-11.264-12.288-19.456-12.288zM600.576 422.4h117.76l-117.76 117.248V422.4z m-105.984 15.872H163.328c-11.264 0-20.48 9.216-20.48 20.48s9.216 20.48 20.48 20.48h331.776c11.264 0 20.48-9.216 20.48-20.48 0-11.776-9.216-20.48-20.992-20.48z m0-126.976H163.328c-11.264 0-20.48 9.216-20.48 20.48s9.216 20.48 20.48 20.48h331.776c11.264 0 20.48-9.216 20.48-20.48s-9.216-20.48-20.992-20.48zM684.544 184.32H163.328c-11.264 0-20.48 9.216-20.48 20.48s9.216 20.48 20.48 20.48h521.216c11.264 0 20.48-9.216 20.48-20.48s-9.216-20.48-20.48-20.48z m0-126.976H163.328c-11.264 0-20.48 9.216-20.48 20.48s9.216 20.48 20.48 20.48h521.216c11.264 0 20.48-9.216 20.48-20.48s-9.216-20.48-20.48-20.48z"  horiz-adv-x="1024" />

    
    <glyph glyph-name="chazhong1" unicode="&#58977;" d="M877.714286 474.843429a327.972571 327.972571 0 0 1-73.142857 36.717714V822.857143H73.142857v-804.571429h348.013714c18.505143-27.648 41.033143-52.297143 66.779429-73.142857H73.142857a73.142857 73.142857 0 0 0-73.142857 73.142857V822.857143a73.142857 73.142857 0 0 0 73.142857 73.142857h731.428572a73.142857 73.142857 0 0 0 73.142857-73.142857v-348.013714zM487.936 457.142857c-25.746286-20.845714-48.274286-45.494857-66.779429-73.142857H146.285714V457.142857h341.650286zM367.689143 237.714286a332.8 332.8 0 0 1 0-73.142857H146.285714V237.714286h221.403429zM146.285714 676.571429h585.142857v-73.142858H146.285714V676.571429z m701.878857-680.448a256 256 0 1 0 51.712 51.712l113.371429-113.371429-51.712-51.785143-113.371429 113.371429zM694.857143 18.285714a182.857143 182.857143 0 1 1 0 365.714286 182.857143 182.857143 0 0 1 0-365.714286z"  horiz-adv-x="1024" />

    
    <glyph glyph-name="refresh" unicode="&#59003;" d="M968.60387555 529.5348243000001L762.47495111 529.5348243000001c-26.29680545 0-47.56724243 21.30660315-47.56724243 47.56954832 0 26.26076065 21.27165061 47.56724243 47.56724243 47.56724243l82.74757404 0c-74.64295538 105.47230341-197.38593659 174.41678222-336.4460468 174.41678223-227.68541392 0-412.26027615-184.57607585-412.26027616-412.2578489 0-227.6842003 184.57607585-412.25906252 412.26027616-412.25906251 227.6842003 0 412.25906252 184.57607585 412.2590625 412.25906251 0 26.26076065 21.27055835 47.56724243 47.56615017 47.56724244 26.26294518 0 47.57076195-21.30660315 47.57076196-47.56724244 0-280.22586785-227.19146667-507.39670282-507.39670281-507.39670281-280.20887703 0-507.39791645 227.16962133-507.39791645 507.39670281 0 280.22465422 227.18903941 507.39548918 507.39791645 507.39548919 170.06227911 0 320.27079111-83.84554477 412.25906251-212.30629926l0 85.45688084c0 26.26294518 21.27055835 47.56845605 47.56615017 47.56845605 26.26294518 0 47.57076195-21.30551088 47.57076195-47.56845605l0-190.27285334C1016.17451615 550.84130608 994.86439348 529.5348243000001 968.60387555 529.5348243000001Z"  horiz-adv-x="1024" />

    
    <glyph glyph-name="zhexiantu" unicode="&#58899;" d="M190.293333 128a58.026667 58.026667 0 1 0-81.92 85.333333l227.413334 228.266667a98.56 98.56 0 0 0 139.093333 0L554.666667 361.813333a30.293333 30.293333 0 0 1 42.666666 2.56l243.2 273.066667 2.133334 2.56a53.76 53.76 0 0 0 75.093333 0 57.6 57.6 0 0 0 0-79.36l-274.346667-308.48-3.84-4.266667a97.706667 97.706667 0 0 0-138.666666 0L426.666667 324.266667a30.293333 30.293333 0 0 1-42.666667 0z"  horiz-adv-x="1024" />

    
    <glyph glyph-name="jia" unicode="&#58898;" d="M563.2-51.2l0 384 384 0c32 0 57.6 25.6 57.6 57.6 0 32-25.6 57.6-57.6 57.6l-384 0 0 384c0 32-25.6 57.6-57.6 57.6-32 0-57.6-25.6-57.6-57.6l0-384-384 0C38.4 441.6 12.8 416 12.8 384c0-32 25.6-57.6 57.6-57.6l384 0 0-384c0-32 25.6-57.6 57.6-57.6C537.6-108.8 563.2-83.2 563.2-51.2L563.2-51.2 563.2-51.2zM563.2-51.2"  horiz-adv-x="1024" />

    
    <glyph glyph-name="jian" unicode="&#59044;" d="M946.3808 306.3808H77.6192a77.6192 77.6192 0 0 0 0 155.2384h868.7616a77.6192 77.6192 0 1 0 0-155.2384"  horiz-adv-x="1024" />

    
    <glyph glyph-name="shishi1-copy" unicode="&#59370;" d="M778.66666625 864a213.33333375 213.33333375 0 0 0 213.33333375-213.33333375v-533.3333325a213.33333375 213.33333375 0 0 0-213.33333375-213.33333375H245.33333375a213.33333375 213.33333375 0 0 0-213.33333375 213.33333375V650.6666662499999a213.33333375 213.33333375 0 0 0 213.33333375 213.33333375h533.3333325z m0-79.99999969H245.33333375a133.33333312 133.33333312 0 0 1-133.33333406-133.33333406v-533.3333325a133.33333312 133.33333312 0 0 1 133.33333406-133.33333406h533.3333325a133.33333312 133.33333312 0 0 1 133.33333406 133.33333406V650.6666662499999a133.33333312 133.33333312 0 0 1-133.33333406 133.33333406z m-214.58666625-121.70666719c11.54666625 38.02666687 65.49333375 37.75999969 76.63999969-0.39999937l99.01333406-338.13333375H831.99999969a40.00000031 40.00000031 0 0 0 0-79.99999969h-122.23999969a40.00000031 40.00000031 0 0 0-38.4 28.8l-69.70666687 238.13333344-106.77333282-351.65333344c-10.72000031-35.35999969-59.59999969-38.47999969-74.74666687-4.8l-81.25333313 180.77333344-36.56000062-69.7866675a40.00000031 40.00000031 0 0 0-35.43999938-21.43999969H192.00000031a40.00000031 40.00000031 0 1 0 0 79.99999969h50.66666625l63.52000031 121.22666719c15.46666687 29.54666625 58.24000031 28.26666656 71.91999938-2.16l71.2266675-158.45333344z"  horiz-adv-x="1024" />

    
    <glyph glyph-name="gengduo1" unicode="&#58944;" d="M384 768a128 128 0 1 0 256 0 128 128 0 0 0-256 0z m0-384a128 128 0 1 0 256 0 128 128 0 0 0-256 0z m0-384a128 128 0 1 0 256 0 128 128 0 0 0-256 0z"  horiz-adv-x="1024" />

    
    <glyph glyph-name="wenjian4" unicode="&#58889;" d="M510.9 386.6h2.3v-5.3h-2.3zM534.6 422.6c-12.4 12.4-32.8 12.4-45.2 0l-113.1-113c-12.4-12.4-12.4-32.8 0-45.2 12.4-12.4 32.8-12.4 45.2 0l113.1 113.1c12.5 12.3 12.5 32.7 0 45.1zM647.7 264.3c12.4 12.4 12.4 32.8 0 45.2L534.6 422.6c-12.4 12.4-32.8 12.4-45.2 0-12.4-12.4-12.4-32.8 0-45.2l113.1-113.1c12.4-12.4 32.7-12.4 45.2 0zM544 400v-255.8c0-17.7-14.3-32-32-32s-32 14.3-32 32V400c0 17.7 14.3 32 32 32s32-14.4 32-32zM863 511.9c0.5-0.7 1.5-2.4 0.9-5l-99.5-472.6c-0.2-1.1-0.6-1.7-0.9-2.1h-503c-0.3 0.3-0.7 1-0.9 2.1l-99.5 472.6c-0.6 2.7 0.3 4.3 0.9 5h702m1 64H160c-40.9 0-71.3-40-62.4-82.2l99.5-472.6c6.5-30.9 32.5-52.9 62.4-52.9h505c30 0 55.9 22 62.4 52.9l99.5 472.6c8.9 42.2-21.5 82.2-62.4 82.2zM396.7 735.8l79.8-53.2 16.1-10.7h307.2V576H224.2V735.8h172.5m19.4 64H224.2c-35.3 0-64-28.6-64-64v-223.9h702.9c0.4 0 0.7 0.3 0.7 0.7V671.8c0 35.3-28.6 64-64 64H512l-95.9 64z"  horiz-adv-x="1024" />

    
    <glyph glyph-name="dingzhi" unicode="&#59014;" d="M516.273152 122.3424s-194.4832-195.2256-230.2464-230.912c-35.7376-35.712-84.864-13.824-98.688 0-13.8496 13.8496-143.1552 143.6672-164.48 164.9408-21.3248 21.248-38.4512 60.5184 0 98.944 38.4768 38.3744 230.272 230.8864 230.272 230.8864s-155.0336 155.5456-164.48 164.9408c-9.3952 9.3952-7.8848 33.28-14.4128 58.5984-6.5024 25.2928-31.2832 143.8464-36.736 185.8048-5.4784 41.9584 9.9584 51.3536 17.7664 59.1872 7.8592 7.8336 30.1312 13.7472 49.8432 9.472 19.6864-4.3008 158.3104-27.5968 182.6048-34.3296 24.3456-6.7328 52.1984-2.9952 64.0768-14.8736 11.904-11.8784 164.48-164.9152 164.48-164.9152s180.1472 180.8384 213.8112 214.4C763.697152 898.048 819.274752 906.8544 845.207552 880.9728c17.3312-17.3312 148.992-149.5296 164.4544-164.9152 15.4368-15.4368 28.288-70.784-16.4352-115.456-44.7232-44.6464-213.8112-214.4-213.8112-214.4s171.1616-171.7248 197.3504-197.9136c26.2144-26.112 45.8752-72.5504-1.3824-126.3872-30.8736-35.2-93.6192-99.1744-131.5584-131.9424-60.7232-52.4032-100.0448-35.6096-130.2016-5.5296-30.1568 30.1312-197.3504 197.9136-197.3504 197.9136m-189.2096 42.624c-8.7552 8.6784-94.5408 94.7712-94.5408 94.7712l-47.2576-47.3856s85.7088-86.0416 94.5152-94.7712l47.2832 47.3856z m-94.5408-94.7968L138.007552 164.9664s-11.0592-9.6-25.4464-22.7328c-30.5408-27.8528-26.7264-24.0128-8.832-41.856 17.8688-17.8176 107.2128-107.5968 126.0288-126.3616 18.8416-18.7648 29.0304-2.432 47.2576 15.7952l191.8208 190.9504-157.5424 157.9776-31.488-31.616s87.7568-88.0384 94.5152-94.7712l-141.7984-142.1824zM216.778752 781.0304c-32.7936 6.2464-67.8656 19.9168-85.6832 22.7328-17.8688 2.8416-33.2288-24.3712-31.5136-31.5904 1.7152-7.1936 4.352-10.4448 22.6816-85.9136 17.9456-73.856 31.5136-63.2064 31.5136-63.2064l126.0288 126.3872c0.3072 2.5344-5.4272 18.1504-63.0272 31.5904m567.1168-157.952c-6.1184 6.0672-94.5152 94.7712-94.5152 94.7712l-31.5136-31.5904 94.5152-94.7968 31.5136 31.616m-78.7712-79.0016l-94.5152 94.7968-47.2576-47.4112 157.5424-157.952c-0.0512 0 196.9408 196.1984 215.8592 215.04 18.8928 18.8928 15.872 15.7696 0 31.616-15.872 15.8208-112.4608 112.8448-126.0288 126.3616-13.568 13.5168-13.4912 17.9968-31.5136 0-17.9712-17.9456-42.5728-41.2928-42.5728-41.2928l94.5152-94.7712-126.0288-126.3872z m-360.704 164.9664l-151.7824-152.1664L654.871552 100.3008l149.0176 149.4272L351.332352 700.7488m434.2272-703.4368c19.8144 19.7376 102.4 102.784 118.1952 118.5024 15.7952 15.7696-4.4288 34.0992-14.7968 44.4416-10.3424 10.3168-29.5424 29.6448-29.5424 29.6448l-147.7376-148.1728c-1.1008 1.3568 8.5504-7.3216 29.5424-29.6192 14.6688-15.5648 24.5504-34.5856 44.3392-14.7968"  horiz-adv-x="1024" />

    
    <glyph glyph-name="baimingdan" unicode="&#59146;" d="M741.439426-89.341537a39.231902 39.231902 0 0 0-39.615901-38.655903H161.152877A140.799648 140.799648 0 0 0 21.121227 13.250207V754.688353C21.121227 832.576159 83.96907 896 161.152877 896h599.742501c77.183807 0 139.96765-63.423841 139.96765-141.311647l-0.703998-243.83939a36.991908 36.991908 0 0 0-17.919956-27.583931 37.119907 37.119907 0 0 0-55.231862 27.583931l-0.127999 0.575998c-0.128 1.343997-0.128 2.815993-0.128 4.22399V724.672428c0 52.287869-42.047895 94.847763-93.887765 94.847763H189.056807c-51.775871 0-93.823765-42.559894-93.823765-94.847763v-680.190299a94.335764 94.335764 0 0 1 93.823765-94.847763l512.766718-0.255999c21.887945 0 39.615901-17.407956 39.615901-38.719904zM573.695846 498.624993v0.128a37.887905 37.887905 0 0 1-37.631906 37.951905H230.656703c-20.799948 0-37.695906-17.087957-37.695905-38.079905s16.895958-38.079905 37.695905-38.079904h305.407237a37.887905 37.887905 0 0 1 37.631906 38.079904zM467.328112 354.689353a37.951905 37.951905 0 0 1-37.759906 38.079905H230.656703c-20.799948 0-37.695906-17.087957-37.695905-38.079905s16.895958-38.079905 37.695905-38.079905h198.911503a37.951905 37.951905 0 0 1 37.759906 38.079905z m-236.671409-110.783723a37.887905 37.887905 0 0 1-37.695905-38.015905c0-20.991948 16.895958-38.079905 37.695905-38.079905h178.431554a38.015905 38.015905 0 0 1 0 76.09581H230.656703z m498.430754 405.950985l-0.064 6.335985h-0.575998a37.375907 37.375907 0 0 1-37.183907 31.74392H230.656703a37.951905 37.951905 0 0 1-37.695905-38.079905c0-20.927948 16.895958-38.015905 37.695905-38.015905h460.670849c20.863948 0 37.759906 17.087957 37.759905 38.015905z m273.791316-437.310906a259.007352 259.007352 0 0 0-258.559354-258.623354 258.815353 258.815353 0 0 0-258.303354 258.623354 258.687353 258.687353 0 0 0 258.303354 258.239354 258.687353 258.687353 0 0 0 258.559354-258.239354z m-66.687833 0a191.743521 191.743521 0 0 1-383.487042 0 191.87152 191.87152 0 0 1 191.615521-191.743521 191.99952 191.99952 0 0 1 191.871521 191.743521z m-94.463764 84.607788a29.439926 29.439926 0 0 1-20.607949-8.511979l-92.671768-92.671768-50.047875 50.111875a29.887925 29.887925 0 0 1-21.887945 8.383979h-0.192a28.799928 28.799928 0 0 1-28.415929-28.03193 29.631926 29.631926 0 0 1 8.447979-22.335944l70.847823-70.783823h0.128a29.567926 29.567926 0 0 1 41.983895-0.128l113.471716 113.599716a29.887925 29.887925 0 0 1 0 41.855895 28.607928 28.607928 0 0 1-21.055947 8.511979z"  horiz-adv-x="1024" />

    
    <glyph glyph-name="chazhong" unicode="&#59369;" d="M473.642667 0H171.349333a43.52 43.52 0 0 0-1.365333 0H85.333333a42.666667 42.666667 0 0 0 0 85.333333h42.666667V682.666667a42.666667 42.666667 0 0 0 33.408 41.642666l384 85.333334A42.666667 42.666667 0 0 0 597.333333 768v-144.085333l272.64-115.285334A42.666667 42.666667 0 0 0 896 469.333333v-46.976a297.770667 297.770667 0 0 1-248.32 87.637334L597.333333 531.285333v-31.658666a297.472 297.472 0 0 1-85.333333-41.173334V714.794667L213.333333 648.448V85.333333h199.424c15.189333-32 35.882667-60.842667 60.885334-85.333333z m-60.885334 341.333333a296.533333 296.533333 0 0 1-25.728-85.333333H298.666667a42.666667 42.666667 0 0 0 0 85.333333h114.090666zM298.666667 448a42.666667 42.666667 0 0 0 0 85.333333h128a42.666667 42.666667 0 0 0 0-85.333333H298.666667zM682.666667 0a213.333333 213.333333 0 1 0 178.005333 95.701333l75.861333-75.904a42.666667 42.666667 0 0 0-60.330666-60.330666l-75.904 75.861333A212.352 212.352 0 0 0 682.666667 0z m0 85.333333a128 128 0 1 1 0 256 128 128 0 0 1 0-256z"  horiz-adv-x="1024" />

    
    <glyph glyph-name="jibenqingkuanghuizong" unicode="&#59122;" d="M659.2 676.8c0 20.8-16 36.8-36.8 36.8H184c-20.8 0-36.8-16-36.8-36.8s16-36.8 36.8-36.8h438.4c20.8 0 36.8 16 36.8 36.8z m0-219.2c0 20.8-16 36.8-36.8 36.8H184c-20.8 0-36.8-16-36.8-36.8s16-36.8 36.8-36.8h438.4c20.8 0 36.8 16 36.8 36.8zM184 273.6c-20.8 0-36.8-16-36.8-36.8s16-36.8 36.8-36.8h219.2c20.8 0 36.8 16 36.8 36.8s-16 36.8-36.8 36.8H184zM768 384c-140.8 0-256-115.2-256-256s113.6-256 256-256 256 115.2 256 256-113.6 256-256 256z m179.2-219.2h-142.4v142.4c35.2-6.4 65.6-24 91.2-49.6 27.2-25.6 44.8-57.6 51.2-92.8zM768-54.4c-48 0-94.4 19.2-129.6 52.8-33.6 35.2-52.8 80-52.8 129.6 0 48 19.2 94.4 52.8 129.6 25.6 25.6 57.6 43.2 92.8 49.6v-216h214.4c-6.4-35.2-24-67.2-49.6-92.8-32-33.6-78.4-52.8-128-52.8zM476.8 17.6h-368c-20.8 0-36.8 16-36.8 36.8V785.6c0 20.8 16 36.8 36.8 36.8h587.2c20.8 0 36.8-16 36.8-36.8v-292.8c0-20.8 16-36.8 36.8-36.8 20.8 0 36.8 16 36.8 36.8V822.4c0 40-32 73.6-73.6 73.6H73.6C32 896 0 864 0 822.4v-804.8c0-40 32-73.6 73.6-73.6h403.2c20.8 0 36.8 16 36.8 36.8s-16 36.8-36.8 36.8z"  horiz-adv-x="1024" />

    
    <glyph glyph-name="wenjian2" unicode="&#58884;" d="M704 686.93333335H396.8c-53.76 0-102.4-48.64-102.4-102.4h-30.72c-53.76 0-97.28-48.64-97.28-102.4v-512c0-53.76 48.64-102.4 102.4-102.4h384c53.76 0 102.4 48.64 102.4 102.4h25.6c53.76 0 102.4 48.64 102.4 102.4V482.13333335L704 686.93333335z m-51.2-768h-384c-25.6 0-51.2 25.6-51.2 51.2v512c0 25.6 23.04 51.2 48.64 51.2h28.16v-460.8c0-53.76 48.64-102.4 102.4-102.4H704c0-25.6-25.6-51.2-51.2-51.2zM832 72.53333335000002c0-25.6-25.6-51.2-51.2-51.2h-384c-25.6 0-51.2 25.6-51.2 51.2v512c0 25.6 25.6 51.2 51.2 51.2h256V533.33333335c0-53.76 48.64-102.4 102.4-102.4H832v-358.4z m-76.8 409.6c-28.16 0-51.2 48.64-51.2 76.8v76.8l128-153.6h-76.8zM704 328.53333335H473.6c-15.36 0-25.6-10.24-25.6-25.6s10.24-25.6 25.6-25.6H704c15.36 0 25.6 10.24 25.6 25.6 0 12.8-10.24 25.6-25.6 25.6z m0-128H473.6c-15.36 0-25.6-10.24-25.6-25.6s10.24-25.6 25.6-25.6H704c15.36 0 25.6 10.24 25.6 25.6 0 12.8-10.24 25.6-25.6 25.6z"  horiz-adv-x="1024" />

    
    <glyph glyph-name="wenjian3" unicode="&#59007;" d="M867.596 683.464l-192.846 182.444C654.238 885.314 627.39 896 599.154 896H232C171.346 896 122 846.654 122 786v-804c0-60.654 49.346-110 110-110h560c60.654 0 110 49.346 110 110V603.556c0 30.098-12.54 59.224-34.404 79.908zM809.322 656H660c-5.514 0-10 4.486-10 10V806.728zM792-68H232c-27.57 0-50 22.43-50 50V786c0 27.57 22.43 50 50 50h358v-170c0-38.598 31.402-70 70-70h182v-614c0-27.57-22.43-50-50-50zM726 496H286c-16.568 0-30-13.432-30-30s13.432-30 30-30h440c16.568 0 30 13.432 30 30s-13.432 30-30 30zM726 336H286c-16.568 0-30-13.432-30-30s13.432-30 30-30h440c16.568 0 30 13.432 30 30s-13.432 30-30 30zM431.44 176H286c-16.568 0-30-13.432-30-30s13.432-30 30-30h145.44c16.568 0 30 13.432 30 30s-13.432 30-30 30z"  horiz-adv-x="1024" />

    
    <glyph glyph-name="tongji" unicode="&#59120;" d="M79.061-1.195h853.334q42.666 0 42.666-42.666 0-42.667-42.666-42.667H79.06q-42.666 0-42.666 42.667 0 42.666 42.666 42.666zM255.147 405.248q42.666 0 42.666-42.667v-277.418q0-42.667-42.666-42.667-42.667 0-42.667 42.667V362.58q0 42.667 42.667 42.667zM751.189 586.624q42.667 0 42.667-42.667V85.12q0-42.667-42.667-42.667-42.666 0-42.666 42.667V543.957q0 42.667 42.666 42.667zM512 768q42.667 0 42.667-42.667V85.12q0-42.667-42.667-42.667t-42.667 42.667V725.333Q469.333 768 512 768z"  horiz-adv-x="1024" />

    
    <glyph glyph-name="gongneng" unicode="&#58940;" d="M939.52 217.6c-2.048 1.536-14.848-2.048-28.16-1.536-11.776 0.512-27.136 7.168-29.696 10.752-2.56 4.096-15.36 17.408-14.848 32.768 1.536 17.408 19.968 31.232 13.824 41.472-8.704 15.36-19.968 19.968-31.232 27.136-5.12 3.072-15.872 4.096-27.648-3.072-5.632-3.584-9.216-16.384-15.872-20.992-9.216-6.656-19.968-9.216-31.232-8.192-3.584 0.512-14.848-1.536-23.04 9.216-11.264 14.848-9.728 43.52-31.232 44.544-16.384 1.024-39.936-4.608-46.592-18.944-4.096-8.192 1.024-20.48 0.512-30.208-1.024-11.264-6.144-21.504-14.848-28.672-5.632-5.632-13.312-13.312-22.528-11.776-17.408 2.56-37.888 22.528-52.224 12.8-10.752-7.168-26.624-26.112-20.992-49.664 1.536-7.68 15.36-11.776 20.992-19.456 7.168-10.752 9.728-23.552 8.192-35.84-1.024-4.608 0.512-14.336-9.216-22.016-14.336-11.776-25.088-4.096-35.84-17.408-9.728-12.288-4.608-25.088-4.096-37.888 1.024-10.752 10.24-22.528 15.872-24.576 7.68-2.048 21.504 3.584 32.768 2.56 14.336-1.536 26.112-9.728 28.672-14.848 3.072-6.656 11.776-15.872 11.264-23.552 0-14.848-16.896-22.528-16.384-36.864 0.512-13.824 16.896-31.232 37.376-38.4 20.992-7.168 28.16 32.256 59.392 33.792 8.704 0.512 24.576-1.024 29.184-5.12 15.872-12.8 7.68-39.424 29.696-46.592 23.04-7.68 48.128 9.728 51.712 14.848 4.096 5.12-18.432 39.424 19.456 64 2.56 1.536 11.776 12.288 23.552 10.752 17.92-2.048 32.768-20.48 44.544-13.312 17.408 10.24 27.136 29.184 25.6 49.152 0 1.536-14.848 11.264-23.04 23.04s-9.728 25.088-8.704 30.72c2.048 5.12 2.048 22.016 10.752 26.624 14.848 8.192 38.4 10.752 39.424 27.648 0.512 11.264 1.024 17.408-2.56 27.136-3.072 10.752-4.096 15.36-12.8 19.968z m-194.56-166.4c-51.712 3.072-91.136 47.104-88.064 98.816v0.512c3.072 51.712 47.104 91.136 98.816 88.064 51.712-3.072 91.136-47.104 88.064-98.816v-0.512c-2.56-51.712-46.592-91.136-98.816-88.064 0.512 0 0.512 0 0 0zM393.728 825.344H156.672c-49.152 0-89.088-39.936-89.088-89.088v-237.056c0-49.152 39.936-89.088 89.088-89.088h237.056c49.152 0 89.088 39.936 89.088 89.088V736.256c0 49.152-39.936 89.088-89.088 89.088z m43.008-326.144c0-35.328-40.96-49.152-75.776-49.152H171.008c-34.816 0-65.024 13.824-65.024 49.152l0.512 247.808c0 35.328 46.08 39.936 81.408 39.936h179.712c35.328 0 73.216-3.584 73.216-38.912V527.36l-4.096-28.16z m433.152 326.144h-237.056c-49.152 0-89.088-39.936-89.088-89.088v-237.056c0-49.152 39.936-89.088 89.088-89.088h237.056c49.152 0 89.088 39.936 89.088 89.088V736.256c0 49.152-39.936 89.088-89.088 89.088z m43.008-326.144c0-35.328-40.96-49.152-75.776-49.152h-189.952c-35.328 0-65.536 13.824-65.536 49.152l0.512 247.808c0 35.328 46.08 39.936 81.408 39.936h179.712c35.328 0 73.216-3.584 73.216-38.912V527.36l-3.584-28.16z m-522.24-139.776H154.112c-49.152 0-89.088-39.936-89.088-89.088v-237.056c0-49.152 39.936-89.088 89.088-89.088h237.056c49.152 0 89.088 39.936 89.088 89.088v237.056c-0.512 49.152-39.936 89.088-89.6 89.088 0.512 0 0.512 0 0 0z m43.008-326.144c0-35.328-40.96-49.152-75.776-49.152h-189.44c-35.328 0-65.536 13.824-65.536 49.152l0.512 247.808c0 35.328 46.08 39.936 81.408 39.936h179.712c35.328 0 73.216-3.584 73.216-38.912V61.44l-4.096-28.16z"  horiz-adv-x="1024" />

    
    <glyph glyph-name="zhijiandan" unicode="&#58891;" d="M46.155-24.712V790.616c0 34.33 27.145 62.173 60.476 62.173h659.847c33.332 0 60.476-27.943 60.476-62.173v-283.618h39.918V790.616c0 56.883-45.007 103.288-100.394 103.288H106.631C51.245 893.904 6.237 847.5 6.237 790.616v-815.328C6.237-81.695 51.245-128 106.631-128h539.294v41.016H106.631c-33.331 0-60.476 27.943-60.476 62.272zM130.882 699.902h445.686v-39.918H130.882z m0-153.884h564.043V506.1H130.882z m0-154.284h232.922v-39.918H130.882z m621.325 87.121c-71.453 0-138.715-27.842-189.212-78.339-50.496-50.496-78.339-117.758-78.339-189.212s27.843-138.715 78.34-189.212 117.758-78.34 189.211-78.34 138.716 27.844 189.212 78.34 78.34 117.759 78.34 189.212-27.843 138.716-78.34 189.212c-50.596 50.497-117.758 78.34-189.212 78.34z m0-495.284c-125.542 0-227.733 102.19-227.733 227.733s102.19 227.633 227.733 227.633S979.94 336.747 979.94 211.204 877.75-16.429 752.207-16.429zM803.901 143.643c9.381 4.291 13.173 11.476 11.477 21.755-6.786 26.446-13.672 46.405-20.458 60.077-3.393 8.483-10.678 11.477-21.756 8.982-9.38-3.393-12.374-9.78-8.981-19.161 8.482-22.953 15.368-43.012 20.458-60.077 3.493-10.279 9.88-14.17 19.26-11.576zM824.36 350.618l-10.18 10.18c-13.672 11.077-26.845 9.78-39.618-3.793a4301.708 4301.708 0 0 1-26.845-30.637c-17.864-19.56-31.536-34.13-40.916-43.41 1.696 5.089 1.696 10.677 0 16.565-2.595 5.09-6.387 7.684-11.477 7.684h-21.755v46.006c-0.899 9.38-6.387 14.47-16.566 15.369-10.18-0.899-15.768-5.988-16.566-15.369v-46.006h-25.648c-9.38-0.898-14.47-6.386-15.368-16.566 0.798-11.077 5.987-17.065 15.368-17.863h22.953c-6.786-30.637-19.56-64.767-38.321-102.19-5.09-11.078-3.393-19.56 5.09-25.548 10.178-4.291 18.76-1.297 25.547 8.982 2.595 4.29 5.988 11.875 10.179 22.953v-98.399c0.798-9.38 6.387-14.07 16.566-14.07 10.18 0.897 15.768 5.987 16.566 15.368V213.899c5.09-10.18 11.077-18.762 17.863-25.548 6.787-5.987 13.573-5.588 20.458 1.298a589.567 589.567 0 0 0 17.864-54.988c4.291-9.38 11.476-12.773 21.755-10.179 9.381 4.291 12.774 11.876 10.18 22.953-5.988 22.155-13.673 44.708-22.954 67.761-2.594 4.291-6.786 6.387-12.773 6.387-6.786 0.798-11.976-0.898-15.369-5.09-1.696 2.595-4.291 6.387-7.684 11.477-4.291 6.786-7.285 11.876-8.982 15.368-7.684 10.18-14.47 13.573-20.458 10.18v19.16h23.352c-5.987-7.684-5.09-15.368 2.595-22.953 8.483-6.786 16.566-7.285 24.25-1.297 0.799-6.786 5.49-10.678 14.071-11.476h126.541c10.18 0.798 14.87 7.185 14.071 19.16 9.38-7.684 17.065-8.083 22.953-1.297 6.786 11.876 6.786 21.755 0 29.44-18.761 14.47-44.31 36.624-76.743 66.363z m-79.238-79.137l35.826 35.826c5.09 5.988 8.084 9.381 8.982 10.18 5.09 5.987 11.077 5.488 17.863-1.298 14.47-14.47 31.536-29.44 51.096-44.708H745.122zM888.228 110.411h-35.826c12.774 28.94 25.148 61.374 37.024 97.1 3.393 11.877 0 20.459-10.18 25.549-11.076 3.393-18.76-0.4-22.952-11.477-13.672-45.207-27.743-82.231-42.214-111.172H696.621c-9.38-0.898-14.47-6.387-15.368-16.566 0.798-11.077 6.387-17.065 16.566-17.863h190.41c9.38 0.898 14.47 6.786 15.368 17.863-0.798 10.18-5.988 15.668-15.369 16.566z"  horiz-adv-x="1024" />

    
    <glyph glyph-name="shishi" unicode="&#59337;" d="M759.93530029 17.948132809999947H338.22245146a41.98619531 41.98619531 0 1 1 0-83.92368164h421.71284883a41.98619531 41.98619531 0 1 1 0 83.92368164zM213.33544033 339.17661972999997m41.98619444 0l421.66414072 0q41.98619531 0 41.98619531-41.98619531l0 0q0-41.98619531-41.98619531-41.98619444l-421.66414072 0q-41.98619531 0-41.98619444 41.98619444l0 0q0 41.98619531 41.98619444 41.98619531ZM255.32163477 409.70563388h421.66414072a41.98619531 41.98619531 0 0 1 0 83.97238975H255.32163477a41.98619531 41.98619531 0 1 1 0-83.97238975zM255.32163477 564.20703779h421.66414072a41.98619531 41.98619531 0 0 1 0 83.97238974H255.32163477a41.98619531 41.98619531 0 1 1 0-83.97238974zM832.55875332 564.20703779h10.2773628a41.98619531 41.98619531 0 1 1 0 83.97238974h-10.2773628a41.98619531 41.98619531 0 1 1 0-83.97238974zM832.55875332 409.70563388h10.2773628a41.98619531 41.98619531 0 1 1 0 83.97238975h-10.2773628a41.98619531 41.98619531 0 1 1 0-83.97238975zM790.572558 339.17661972999997m41.98619532 0l10.2773628 0q41.98619531 0 41.98619531-41.98619531l0 0q0-41.98619531-41.98619531-41.98619444l-10.2773628 0q-41.98619531 0-41.98619531 41.98619444l0 0q0 41.98619531 41.98619531 41.98619531ZM990.56712412 834H107.59062676A45.59057842 45.59057842 0 0 1 62.00004834 788.40942158v-673.48389375A45.59057842 45.59057842 0 0 1 107.59062676 69.28624131000004h882.97649736a45.59057842 45.59057842 0 0 1 45.59057841 45.54187031V788.40942158A45.59057842 45.59057842 0 0 1 990.56712412 834z m-35.21579854-683.56642588H141.63743692V752.9500834h813.71388866z"  horiz-adv-x="1108" />

    
    <glyph glyph-name="zhuye1" unicode="&#59210;" d="M832.06592-128h-128.064a32 32 0 0 0-31.936 32.064v320a32 32 0 0 1-31.68 32h-128.64a32 32 0 0 1-31.68-32v-320a32.128 32.128 0 0 0-31.872-32.064H320.06592c-70.4 0-128 57.216-128 127.808V287.872a32.192 32.192 0 0 1-32.192 32.256h-94.08c-70.784 0-86.848 40.32-36.416 90.048L484.60992 858.688a130.56 130.56 0 0 0 182.848 0l455.232-448.512c50.56-49.792 34.24-90.048-36.352-90.048h-94.08a32.192 32.192 0 0 1-32.192-32.256v-288.064A127.872 127.872 0 0 0 832.06592-128z m64 128V288c0 53.12 43.008 96.256 96.192 96.256l65.6 0.128-435.328 428.736a66.624 66.624 0 0 1-92.992 0L93.50592 384.256h66.432c53.12 0 96.192-43.072 96.192-96.256V0c0-35.072 28.8-63.744 64-63.744h96v287.936a96 96 0 0 0 95.68 96h128.576a96 96 0 0 0 95.68-96v-288H832.06592c35.392 0 64 28.608 64 63.808z"  horiz-adv-x="1152" />

    
    <glyph glyph-name="fuwuqi" unicode="&#58909;" d="M978.4 872.8h-933.6c-13.6 0-22.4-8.8-22.4-22.4v-933.6c0-13.6 8.8-22.4 22.4-22.4h933.6c13.6 0 22.4 8.8 22.4 22.4V850.4c0 13.6-8.8 22.4-22.4 22.4z m-21.6-932.8h-888.8v266.4h888.8v-266.4z m0 310.4h-888.8v266.4h888.8v-266.4z m0 311.2h-888.8v266.4h888.8v-266.4z m-667.2-444h-44.8v-88.8h44.8v88.8z m-88.8 0h-44.8v-88.8h44.8v88.8z m688.8-22.4H712v-44.8h177.6V95.2z m-600 333.6h-44.8v-88.8h44.8v88.8z m-88.8 0h-44.8v-88.8h44.8v88.8z m688.8-22.4H712v-44.8h177.6v44.8z m-600 333.6h-44.8v-88.8h44.8v88.8z m-88.8 0h-44.8v-88.8h44.8v88.8z m688.8-22.4H712v-44.8h177.6v44.8z"  horiz-adv-x="1024" />

    
    <glyph glyph-name="bendi" unicode="&#58939;" d="M1009.338182 552.727273c-12.16 61.498182-58.181818 227.549091-64 245.12A58.181818 58.181818 0 0 1 890.181818 837.818182H122.181818c-27.170909 0-47.185455-19.84-56.494545-44.218182C59.345455 776.901818 16.872727 616.203636 3.84 555.810909a148.072727 148.072727 0 0 1-3.549091-29.090909 80.407273 80.407273 0 0 1 64.814546-70.749091 49.28 49.28 0 0 1-1.105455-10.414545v-448.930909a57.425455 57.425455 0 0 1 58.181818-56.261819h768a57.425455 57.425455 0 0 1 58.181818 56.261819V445.556364a49.28 49.28 0 0 1-1.105454 10.414545A80.523636 80.523636 0 0 1 1012.363636 526.487273a151.970909 151.970909 0 0 1-3.025454 26.24zM866.909091-3.374545H145.454545a23.272727 23.272727 0 0 0-23.272727 22.516363V462.138182A78.952727 78.952727 0 0 1 168.203636 523.636364h6.923637a76.567273 76.567273 0 0 1 77.963636-69.818182c43.636364 0 79.127273 30.545455 83.84 69.818182h6.923636a76.567273 76.567273 0 0 1 77.963637-69.818182c43.636364 0 79.127273 30.545455 83.84 69.818182h6.923636a76.567273 76.567273 0 0 1 77.963637-69.818182c43.403636 0 79.127273 30.545455 83.84 69.818182h6.923636a78.487273 78.487273 0 0 1 155.985454 0h6.923637a79.069091 79.069091 0 0 1 45.963636-61.498182v-442.996364a23.272727 23.272727 0 0 0-23.272727-22.516363zM936.727273 512c-37.934545-21.061818-76.218182 7.272727-80.872728 46.545455h-30.196363c-4.712727-39.272727-22.981818-64-66.385455-64s-61.672727 24.727273-66.327272 64h-30.196364c-4.712727-39.272727-29.090909-64-72.203636-64s-61.672727 24.727273-66.327273 64h-30.196364c-4.712727-39.272727-29.090909-64-72.203636-64s-61.672727 24.727273-66.327273 64h-30.196364C320.581818 519.272727 296.727273 494.545455 253.090909 494.545455s-61.672727 24.727273-66.327273 64h-30.196363C151.854545 519.272727 104.727273 488.727273 69.818182 512c-43.287273 29.090909 27.578182 208 36.596363 223.418182C122.181818 762.181818 135.738182 779.636364 162.909091 779.636364h686.545454c25.6 0 41.192727-19.898182 55.214546-39.854546C913.454545 727.272727 989.090909 541.090909 936.727273 512zM797.090909 682.181818H226.909091a29.090909 29.090909 0 0 1 0-58.181818h570.181818a29.090909 29.090909 0 0 1 0 58.181818zM768 343.272727H256a33.861818 33.861818 0 0 1-34.909091-32.465454v-183.796364a33.861818 33.861818 0 0 1 34.909091-32.465454h512a33.861818 33.861818 0 0 1 34.909091 32.465454v183.796364a33.861818 33.861818 0 0 1-34.909091 32.465454z m-23.272727-178.443636a16.930909 16.930909 0 0 0-17.454546-16.232727H296.727273a16.930909 16.930909 0 0 0-17.454546 16.232727v108.16a16.930909 16.930909 0 0 0 17.454546 16.232727h430.545454a16.930909 16.930909 0 0 0 17.454546-16.232727z"  horiz-adv-x="1024" />

    
    <glyph glyph-name="newbibulb" unicode="&#58880;" d="M632 236l-29.6-17.6v-134.4h-60v160L640 341.6c12 12 12 30.4 0 42.4s-30.4 12-42.4 0L512 299.20000000000005 427.2 384c-12 12-30.4 12-42.4 0s-12-30.4 0-42.4l97.6-97.6v-160h-60V218.39999999999998L392 236c-89.6 52-136 154.4-115.2 256 20 102.4 109.6 181.6 213.6 191.2 112 10.4 216.8-59.2 250.4-166.4 34.4-108-11.2-224.8-108.8-280.8M512 744c-165.6 0-300-134.4-300-300 0-107.2 56.8-206.4 150.4-260v-130.4c0-16.8 13.6-30.4 29.6-30.4h240c16.8 0 30.4 13.6 30.4 30.4V184c92.8 53.6 150.4 152.8 149.6 260C812 609.6 677.6 744 512 744M422.4-6.399999999999977h180v-30.4H422.4zM452-66.39999999999998h120v-29.6h-120zM512 864c8 0 15.2-6.4 15.2-15.2v-60c0-8-6.4-15.2-15.2-15.2-8 0-15.2 6.4-15.2 15.2V848.8C496.8 857.6 504 864 512 864z m339.2-140.8c5.6-5.6 5.6-15.2 0-21.6l-42.4-42.4c-4-4-9.6-5.6-14.4-4-5.6 1.6-9.6 5.6-10.4 10.4-1.6 5.6 0 11.2 4 14.4l42.4 42.4c5.6 7.2 15.2 7.2 20.8 0.8zM992 384c0-8-6.4-15.2-15.2-15.2h-60c-8 0-15.2 6.4-15.2 15.2 0 8 6.4 15.2 15.2 15.2h60c8.8 0 15.2-7.2 15.2-15.2z m-140.8-339.2c-5.6-5.6-15.2-5.6-21.6 0l-42.4 42.4c-4 4-5.6 9.6-4 14.4 1.6 5.6 5.6 9.6 10.4 10.4 5.6 1.6 11.2 0 14.4-4l42.4-42.4c7.2-5.6 7.2-15.2 0.8-20.8z m-678.4 0c-5.6 5.6-5.6 15.2 0 21.6l42.4 42.4c4 4 9.6 5.6 14.4 4 5.6-1.6 9.6-5.6 10.4-10.4 1.6-5.6 0-11.2-4-14.4l-42.4-42.4c-5.6-7.2-15.2-7.2-20.8-0.8zM32 384c0 8 6.4 15.2 15.2 15.2h60c8 0 15.2-6.4 15.2-15.2 0-8-6.4-15.2-15.2-15.2H47.2C38.4 368.79999999999995 32 376 32 384z m140.8 339.2c5.6 5.6 15.2 5.6 21.6 0l42.4-42.4c4-4 5.6-9.6 4-14.4-1.6-5.6-5.6-9.6-10.4-10.4-5.6-1.6-11.2 0-14.4 4l-42.4 42.4c-7.2 5.6-7.2 15.2-0.8 20.8z m0 0"  horiz-adv-x="1024" />

    
    <glyph glyph-name="sanjiao" unicode="&#59099;" d="M951.498 204.312 536.599 619.563c-6.775 6.75-15.69 10.125-24.625 9.875-8.937 0.25-17.837-3.125-24.587-9.875L72.65 204.312"  horiz-adv-x="1024" />

    
    <glyph glyph-name="triangle-up-copy" unicode="&#58908;" d="M996.727 625.613l-485.222-484.233-484.233 485.222z"  horiz-adv-x="1024" />

    
    <glyph glyph-name="lajitong" unicode="&#58935;" d="M111.304348 762.434783h801.391304a44.521739 44.521739 0 0 0 0-89.043479H111.304348a44.521739 44.521739 0 0 0 0 89.043479z m267.130435 133.565217h267.130434a44.521739 44.521739 0 0 0 0-89.043478H378.434783a44.521739 44.521739 0 0 0 0 89.043478z m44.521739-356.173913a44.521739 44.521739 0 0 0 44.521739-44.521739v-400.695652a44.521739 44.521739 0 0 0-89.043478 0V495.304348a44.521739 44.521739 0 0 0 44.521739 44.521739z m178.086956 0a44.521739 44.521739 0 0 0 44.521739-44.521739v-400.695652a44.521739 44.521739 0 0 0-89.043478 0V495.304348a44.521739 44.521739 0 0 0 44.521739 44.521739z m133.565218-667.826087H289.391304c-48.973913 0-133.565217 39.846957-133.565217 89.043478V584.347826h89.043478v-556.521739c0-36.864 63.22087-66.782609 100.173913-66.782609h333.913044c36.953043 0 100.173913 29.918609 100.173913 66.782609V584.347826h89.043478v-623.304348c0-49.196522-84.591304-89.043478-133.565217-89.043478z"  horiz-adv-x="1024" />

    
    <glyph glyph-name="tishi" unicode="&#59074;" d="M512 786.285714h10.971429C738.742857 778.971429 914.285714 603.428571 914.285714 384c0-223.085714-179.2-402.285714-402.285714-402.285714S109.714286 160.914286 109.714286 384 288.914286 786.285714 512 786.285714z m0-548.571428c-25.6 0-43.885714-18.285714-43.885714-43.885715s18.285714-43.885714 43.885714-43.885714 43.885714 18.285714 43.885714 43.885714S537.6 237.714286 512 237.714286z m0 376.685714c-25.6 0-43.885714-18.285714-43.885714-43.885714v-241.371429c0-25.6 18.285714-43.885714 43.885714-43.885714s43.885714 18.285714 43.885714 43.885714V570.514286c0 25.6-18.285714 43.885714-43.885714 43.885714z"  horiz-adv-x="1024" />

    
    <glyph glyph-name="guanbi1" unicode="&#58901;" d="M583.168 372.224L958.464 747.52c18.944 18.944 18.944 50.176 0 69.12l-2.048 2.048c-18.944 18.944-50.176 18.944-69.12 0L512 442.88 136.704 818.688c-18.944 18.944-50.176 18.944-69.12 0l-2.048-2.048c-19.456-18.944-19.456-50.176 0-69.12l375.296-375.296L65.536-3.072c-18.944-18.944-18.944-50.176 0-69.12l2.048-2.048c18.944-18.944 50.176-18.944 69.12 0L512 301.056 887.296-74.24c18.944-18.944 50.176-18.944 69.12 0l2.048 2.048c18.944 18.944 18.944 50.176 0 69.12L583.168 372.224z"  horiz-adv-x="1024" />

    
    <glyph glyph-name="zhongfu" unicode="&#58934;" d="M512 22.366316a35.570526 35.570526 0 0 1-35.031579 27.486316h-20.48A341.153684 341.153684 0 0 0 286.181053 685.810526v-128.269473A39.343158 39.343158 0 0 1 323.368421 518.736842a39.343158 39.343158 0 0 1 38.804211 39.343158v199.410526A39.343158 39.343158 0 0 1 323.368421 796.833684H114.795789a39.343158 39.343158 0 0 1-39.343157-39.343158 39.343158 39.343158 0 0 1 39.343157-38.80421h80.842106a419.301053 419.301053 0 0 1 260.850526-747.52h23.713684a35.031579 35.031579 0 0 1 26.947369 14.012631 36.648421 36.648421 0 0 1 6.467368 29.642106zM817.583158 53.086316H754.526316A418.762105 418.762105 0 0 1 485.052632 788.210526a33.953684 33.953684 0 0 1-26.947369-12.395789 36.109474 36.109474 0 0 1-8.08421-29.103158v-6.467368A36.109474 36.109474 0 0 1 485.052632 712.757895a341.153684 341.153684 0 0 0 161.68421-640.269474 28.025263 28.025263 0 0 0 0 11.317895v130.425263a38.804211 38.804211 0 0 1-38.80421 38.80421 39.343158 39.343158 0 0 1-39.343158-38.80421v-200.488421A38.265263 38.265263 0 0 1 592.842105-20.210526a36.648421 36.648421 0 0 1 16.707369-4.311579 30.72 30.72 0 0 1 9.701052 0h198.332632a39.343158 39.343158 0 0 1 0 78.147368z"  horiz-adv-x="1024" />

    
    <glyph glyph-name="daochu" unicode="&#58882;" d="M910.162967 440.849385a56.884939 56.884939 0 0 1-56.884938-56.884938v-284.424693a113.769877 113.769877 0 0 0-113.769878-113.769877H284.428643a113.769877 113.769877 0 0 0-113.769877 113.769877V383.964447a56.884939 56.884939 0 0 1-113.769877 0v-284.424693a227.539754 227.539754 0 0 1 227.539754-227.539754h455.079508a227.539754 227.539754 0 0 1 227.539755 227.539754V383.964447a56.884939 56.884939 0 0 1-56.884939 56.884938zM244.609186 569.978196a52.334143 52.334143 0 0 1 73.95042 0L455.083459 706.502048V156.424693a56.884939 56.884939 0 0 1 113.769877 0V706.502048l135.955003-136.523852a52.334143 52.334143 0 0 1 73.95042 0 52.902993 52.902993 0 0 1 0 74.519269l-227.539754 227.539755a56.884939 56.884939 0 0 1-19.340879 19.909728 52.334143 52.334143 0 0 1-40.388307 0 56.884939 56.884939 0 0 1-23.891674-18.20318l-227.539754-227.539754a52.902993 52.902993 0 0 1 0-74.51927z"  horiz-adv-x="1024" />

    
    <glyph glyph-name="icon-1" unicode="&#58912;" d="M573.44 256a187.68 187.68 0 0 0-132.8 55.36L416 336l45.28 45.28 24.64-24.64a124.32 124.32 0 0 1 170.08-5.76l1.44 1.28a49.44 49.44 0 0 1 4 3.84l101.28 101.28a124.16 124.16 0 0 1 0 176l-1.92 1.92a124.16 124.16 0 0 1-176 0l-51.68-51.68a49.44 49.44 0 0 1-3.84-4l-20-24.96-49.92 40L480 619.6800000000001a108.16 108.16 0 0 0 8.64 9.28l51.68 51.68a188.16 188.16 0 0 0 266.72 0l1.92-1.92a188.16 188.16 0 0 0 0-266.72l-101.28-101.28a112 112 0 0 0-8.48-7.84 190.24 190.24 0 0 0-125.28-48zM350.72 32a187.36 187.36 0 0 0-133.28 55.36l-1.92 1.92a188.16 188.16 0 0 0 0 266.72l101.28 101.28a112 112 0 0 0 8.48 7.84 188.32 188.32 0 0 0 258.08-7.84L608 432l-45.28-45.28-24.64 24.64A124.32 124.32 0 0 1 368 417.12l-1.44-1.28a49.44 49.44 0 0 1-4-3.84l-101.28-101.28a124.16 124.16 0 0 1 0-176l1.92-1.92a124.16 124.16 0 0 1 176 0l51.68 51.68a49.44 49.44 0 0 1 3.84 4l20 24.96 50.08-40-20.8-25.12a108.16 108.16 0 0 0-8.64-9.28l-51.68-51.68A187.36 187.36 0 0 0 350.72 32z"  horiz-adv-x="1024" />

    
    <glyph glyph-name="tianchongxing-" unicode="&#58925;" d="M512 381.6m-469.5 0a469.5 469.5 0 1 1 939 0 469.5 469.5 0 1 1-939 0ZM780.5 158.8c0-22.6-18.3-41-41-41H464.4c-22.6 0-41 18.3-41 41 0 22.6 18.3 41 41 41h275.1c22.6-0.1 41-18.4 41-41zM780.5 274.8c0-22.6-18.3-41-41-41H583.4c-22.6 0-41 18.3-41 41 0 22.6 18.3 41 41 41h156.1c22.6-0.1 41-18.4 41-41zM616.8 480.8l-267.7-301-113.2-23.4c-6.1-1.3-11.2 3.5-10.3 9.8l16.5 114.1 265.1 297.9c6.1 6.8 16 8 22.1 2.5l87.5-77.8c6.1-5.3 6.1-15.3 0-22.1zM694 567.5l-41-46.1c-3.3-3.7-9-4-12.7-0.7L544 606.2c-3.7 3.3-4 9-0.7 12.7l41.1 46.2c14.9 16.7 40.5 18.2 57.2 3.3l49.2-43.7c16.6-14.9 18.1-40.5 3.2-57.2z"  horiz-adv-x="1024" />

    
    <glyph glyph-name="wenzi" unicode="&#59035;" d="M790.754133 802.133333C867.733333 802.133333 930.133333 739.733333 930.133333 662.754133v-557.508266C930.133333 28.266666999999984 867.733333-34.13333299999999 790.754133-34.13333299999999H233.245867C156.266667-34.13333299999999 93.866667 28.266666999999984 93.866667 105.24586699999998V662.754133C93.866667 739.733333 156.266667 802.133333 233.245867 802.133333h557.508266zM389.768533 120.16639999999995a12.8 12.8 0 0 1-12.8-12.8v-11.246933a12.8 12.8 0 0 1 13.4272-12.7872c31.786667 1.565867 54.3232 2.594133 67.613867 3.0848 22.638933 0.832 41.1776 1.250133 55.624533 1.250133 19.997867 0 57.220267-1.250133 111.6672-3.7504a54795.541333 54795.541333 0 0 1 18.030934-0.725333 12.8 12.8 0 0 1 12.8 12.8v11.374933a12.8 12.8 0 0 1-12.8 12.8h-1.783467c-16.110933 0-28.608 1.527467-37.499733 4.5824-8.887467 3.054933-15.415467 8.055467-19.584 15.0016-3.6096 7.223467-6.2464 18.193067-7.914667 32.917333-1.664 14.72-2.500267 40.413867-2.500267 77.0816v77.917867c0 38.144 0.1408 88.285867 1.92 269.0304a12.8 12.8 0 0 0 12.8 12.637867h60.6976c42.496 0 70.971733-5.905067 85.418667-17.706667 8.6528-7.0784 17.2672-26.244267 25.847467-57.5104a12.8 12.8 0 0 1 14.3104-9.258667l13.824 2.1504a12.8 12.8 0 0 1 10.7392 14.203734c-3.349333 27.323733-5.546667 47.735467-6.600534 61.243733a867.592533 867.592533 0 0 0-2.705066 67.293867 10.082133 10.082133 0 0 1-12.322134 9.8304c-11.434667-2.606933-22.1184-4.288-32.055466-5.038934-20.138667-1.527467-55.765333-2.2912-106.875734-2.2912H389.051733c-45.559467 0-77.917867 0.763733-97.083733 2.2912-9.028267 0.7168-19.0976 2.210133-30.208 4.48a12.8 12.8 0 0 1-15.330133-11.682133c-1.719467-25.5232-3.554133-45.346133-5.504-59.464533-2.039467-14.7584-6.1056-36.928-12.202667-66.5088a12.8 12.8 0 0 1 9.877333-15.104l15.240534-3.242667a12.8 12.8 0 0 1 14.856533 8.631467c10.282667 32.221867 20.258133 52.0064 29.934933 59.349333 16.110933 12.219733 45.973333 18.3296 89.582934 18.3296h58.8672a12.8 12.8 0 0 0 12.8-12.8v-225.531733c0-81.109333-0.554667-136.6656-1.664-166.664534-1.109333-30.0032-3.0592-48.891733-5.8368-56.669866-4.164267-10.274133-10.555733-17.429333-19.165867-21.457067s-22.2208-6.0416-40.832-6.0416h-2.615467z"  horiz-adv-x="1024" />

    
    <glyph glyph-name="guize" unicode="&#58894;" d="M722.9 643H299.8c-39.9 0-72.5-32.6-72.5-72.5v-459.4c0-39.9 32.6-72.5 72.5-72.5h423.1c39.9 0 72.5 32.6 72.5 72.5V570.5c0 39.9-32.6 72.5-72.5 72.5zM349.4 499.6h196.5c14.3 0 25.9-11.6 25.9-25.9s-11.6-25.9-25.9-25.9H349.4c-14.3 0-25.9 11.6-25.9 25.9s11.6 25.9 25.9 25.9zM471.5 182h-122c-14.3 0-25.9 11.6-25.9 25.9 0 14.3 11.6 25.9 25.9 25.9h122c14.3 0 25.9-11.6 25.9-25.9 0-14.3-11.6-25.9-25.9-25.9z m186.2 132.9H349.4c-14.3 0-25.9 11.6-25.9 25.9 0 14.3 11.6 25.9 25.9 25.9h308.3c14.3 0 25.9-11.6 25.9-25.9 0-14.3-11.6-25.9-25.9-25.9zM349.4 677.6h308.3c14.3 0 25.9 11.6 25.9 25.9 0 14.3-11.6 25.9-25.9 25.9H349.4c-14.3 0-25.9-11.6-25.9-25.9 0-14.3 11.6-25.9 25.9-25.9z"  horiz-adv-x="1024" />

    
    <glyph glyph-name="wancheng-copy" unicode="&#58928;" d="M511.082 859.951c-263.069 0-476.33-212.903-476.33-475.534s213.261-475.534 476.33-475.534c263.073 0 476.33 212.903 476.33 475.534 0 262.63-213.255 475.534-476.33 475.534zM772.988 498.4l-306.63-313.276c-14.106-14.413-36.99-14.413-51.094 0l-166.087 169.696c-14.115 14.414-14.115 37.788 0 52.206 14.105 14.419 36.99 14.419 51.094 0l140.541-143.585 281.072 287.169c14.115 14.418 37.001 14.418 51.105 0 14.115-14.417 14.115-37.792 0-52.21z"  horiz-adv-x="1024" />

    
    <glyph glyph-name="chakan" unicode="&#58888;" d="M850.880127 453.010747l-48.063669 48.074925 106.260116 106.257046 48.061622-48.074925L850.880127 453.010747 850.880127 453.010747zM521.806343-5.576763c-95.499028 0-267.341814 68.695568-397.427568 282.381345C243.570411 477.475951 410.983305 553.956833 516.564969 553.956833c91.125417 0 214.228129-41.094954 386.967332-277.151227C740.13793 34.346505 617.308441-5.576763 521.806343-5.576763L521.806343-5.576763zM516.564969 496.425535c-87.37807 0-215.043704-50.818409-334.669222-224.850048 128.264269-176.190815 262.859733-219.634256 334.669222-219.634256 71.806419 0 211.782428 44.243667 329.452407 224.864374C735.765343 434.030463 607.008864 496.425535 516.564969 496.425535L516.564969 496.425535zM511.348154 135.60777c-77.976956 0-141.197836 63.206554-141.197836 141.197836 0 77.973886 63.22088 141.18351 141.197836 141.18351 77.973886 0 141.197836-63.209624 141.197836-141.18351C652.54599 198.814324 589.323063 135.60777 511.348154 135.60777L511.348154 135.60777zM511.348154 360.472144c-46.216601 0-83.680864-37.46631-83.680864-83.666538 0-46.216601 37.464263-83.669608 83.680864-83.669608 46.213531 0 83.652212 37.453007 83.652212 83.669608C595.001389 323.004811 557.561685 360.472144 511.348154 360.472144L511.348154 360.472144zM479.966423 773.576763l67.978231 0 0-172.563194-67.978231 0L479.966423 773.576763 479.966423 773.576763zM66.861804 557.364443l47.245024 48.822962 104.465237-107.943454-47.246047-48.820915L66.861804 557.364443 66.861804 557.364443zM66.861804 557.364443"  horiz-adv-x="1024" />

    
    <glyph glyph-name="shangchuan1" unicode="&#58933;" d="M782.72512 568.0896l-242.54464 242.54464a35.84512 35.84512 0 0 1-13.76256 10.7008c-0.22016 0.09728-0.44032 0.2048-0.67072 0.30208a33.97632 33.97632 0 0 1-13.34272 2.73408l-0.08704-0.00512-0.32256 0.01536c-0.09216 0-0.1792-0.01536-0.27136-0.01536-0.09728 0-0.18944 0.01536-0.2816 0.01536a33.7664 33.7664 0 0 1-20.21376-6.66624 35.96288 35.96288 0 0 1-6.79936-6.27712l-243.3536-243.36384c-6.97856-6.97856-10.85952-15.97952-11.0848-25.4208a35.4304 35.4304 0 0 1 9.3696-24.9344l0.512-0.512a34.49344 34.49344 0 0 1 24.01792-9.57952 36.5568 36.5568 0 0 1 26.33728 11.29472L476.16 704.85504v-499.99872a35.84 35.84 0 1 1 71.68 0v499.8144l185.73312-185.73312c6.97856-6.97856 15.97952-10.85952 25.41568-11.0848l0.86016-0.01024c9.1136 0 17.60768 3.43552 24.07936 9.37984l0.512 0.512c13.30176 13.83424 12.76928 36.38272-1.7152 50.3552zM880.64 148.42368v-61.44c0-39.58784-32.09216-71.68-71.68-71.68H215.04c-39.58784 0-71.68 32.09216-71.68 71.68v61.44a35.84 35.84 0 1 1-71.68 0v-61.44c0-79.17568 64.18432-143.36 143.36-143.36h593.92c79.17568 0 143.36 64.18432 143.36 143.36v61.44a35.84 35.84 0 1 1-71.68 0z"  horiz-adv-x="1024" />

    
    <glyph glyph-name="lianjie" unicode="&#58919;" d="M893.134 2.683c-87.796-87.796-230.145-87.796-317.941 0l-95.381 95.381c-29.006 29.006-47.481 64.181-57.324 101.159 29.572 3.584 58.682 11.326 86.469 23.291 5.89-22.248 16.996-43.412 34.442-60.858l95.381-95.385c52.679-52.675 138.087-52.675 190.766 0 52.675 52.679 52.675 138.087 0 190.766l-95.385 95.381c-41.47 41.47-103.025 49.779-153.128 25.953l89.54-89.54c17.563-17.563 17.563-46.029 0-63.587-17.558-17.563-46.029-17.563-63.587 0L508.4 323.829c-87.288-57.828-206.031-48.318-282.941 28.588l-95.381 95.381c-87.796 87.796-87.796 230.145 0 317.941s230.145 87.796 317.941 0l95.381-95.381c29.006-29.006 47.486-64.181 57.324-101.159-29.572-3.584-58.682-11.326-86.469-23.291-5.89 22.248-16.996 43.412-34.442 60.858l-95.381 95.385c-52.679 52.675-138.087 52.675-190.766 0-52.675-52.679-52.675-138.087 0-190.766l95.381-95.381c41.474-41.47 103.029-49.779 153.132-25.953l-89.54 89.54c-17.563 17.558-17.563 46.029 0 63.587 17.558 17.563 46.025 17.563 63.587 0l98.587-98.587c87.287 57.827 206.036 48.318 282.941-28.588l95.381-95.381c87.794-87.794 87.794-230.144-0.001-317.939z"  horiz-adv-x="1024" />

    
    <glyph glyph-name="xiayibu" unicode="&#58927;" d="M118.10529188033831 131.50339216017392c7.574897834750945-12.624830184865184 22.72469488509366-15.149797050342714 35.34952506995885-7.574897834750945s15.149797050342714 22.72469488509366 7.574897834750945 35.34952506995885c-42.92442290470979 65.64911778980346-65.64911778980346 143.92306576447208-65.64911778980346 224.72198060461824 0 229.77191295473253 186.84749005002274 416.6194030047552 416.6194030047552 416.6194030047552S928.6194030047552 613.7719129547326 928.6194030047552 384 741.7719129547326-32.61940300475521 512-32.61940300475521c-108.57354069451323 0-209.57218493511638 40.399457420073084-287.84613290978496 116.14843991010503-10.099864700228474 10.099864700228474-25.249660369730368 10.099864700228474-35.34952506995885 0-10.099864700228474-10.099864700228474-10.099864700228474-25.249660369730368 0-35.34952506995885 88.37381267489712-83.32388032478289 201.9972857195246-131.2982355796069 323.19565797974377-131.2982355796069 257.54654018994034 0 467.1187237442159 209.57218493511638 467.1187237442159 467.1187237442159S769.5465401899403 851.1187237442159 512 851.1187237442159 44.88127625578409 641.5465401899403 44.88127625578409 384c0-88.37381267489712 25.249660369730368-176.74762534979425 73.2240156245544-252.49660783982617zM249.4035274599454 384c0-15.149797050342714 10.099864700228474-25.249660369730368 25.24966175057119-25.249660369730368H688.7476253497941l-159.07286281481484-159.07286281481484c-10.099864700228474-10.099864700228474-10.099864700228474-25.249660369730368 0-35.34952506995885 5.049932350114237-5.049932350114237 12.624830184865184-7.574897834750945 17.674762534979426-7.574899215591769s12.624830184865184 2.524965484636708 17.674762534979426 7.574899215591769l201.9972857195246 201.9972857195246c2.524965484636708 2.524965484636708 5.049932350114237 5.049932350114237 5.049932350114237 7.574897834750945 2.524965484636708 2.524965484636708 2.524965484636708 7.574897834750945 2.524966865477531 10.099864700228474s0 7.574897834750945-2.524966865477531 10.099864700228474c-2.524965484636708 2.524965484636708-2.524965484636708 5.049932350114237-5.049932350114237 7.574897834750945l-201.9972857195246 201.9972857195246c-10.099864700228474 10.099864700228474-25.249660369730368 10.099864700228474-35.34952506995885 0s-10.099864700228474-25.249660369730368 0-35.34952506995885L688.7476253497941 409.24966036973035H274.6531892105166c-15.149797050342714 0-25.249660369730368-12.624830184865184-25.24966175057119-25.249660369730368z"  horiz-adv-x="1024" />

    
    <glyph glyph-name="shanchu" unicode="&#58900;" d="M517.59 874.391c-100.299 0-181.703-79.514-185.167-179.34H98.603c-25.979 0-47.235-21.099-47.235-47.236 0-25.98 21.099-47.237 47.236-47.237h52.117v-528.416c0-99.196 67.233-180.285 150.37-180.285h423.55c82.98 0 150.37 80.616 150.37 180.285V600.263h47.236c25.98 0 47.236 21.1 47.236 47.237 0 25.98-21.099 47.236-47.236 47.236H702.441C699.449 794.876 617.888 874.39 517.59 874.39z m-96.677-179.34c3.464 51.172 45.19 90.85 96.834 90.85s93.37-39.835 96.362-90.85H420.913z m-119.98-714.842c-29.444 0-61.88 37.789-61.88 91.953V600.263h547.311V71.69c0-54.007-32.436-91.954-61.88-91.954H300.933v0.473z m0 0M364.387 93.733c21.57 0 39.363 21.571 39.363 48.653V419.978c0 27.082-17.635 48.654-39.363 48.654-21.572 0-39.364-21.572-39.364-48.654v-277.592c0-26.924 17.32-48.653 39.364-48.653z m142.496 0c21.571 0 39.363 21.571 39.363 48.653V419.978c0 27.082-17.635 48.654-39.363 48.654-21.571 0-39.364-21.572-39.364-48.654v-277.592c0-26.924 17.793-48.653 39.364-48.653z m149.896 0c21.571 0 39.364 21.571 39.364 48.653V419.978c0 27.082-17.635 48.654-39.364 48.654-21.571 0-39.363-21.572-39.363-48.654v-277.592c0-26.924 17.162-48.653 39.363-48.653z m0 0"  horiz-adv-x="1024" />

    
    <glyph glyph-name="shangchuan" unicode="&#58968;" d="M768.35456 480a256 256 0 1 1-512 0 192 192 0 1 1 0-384v-64a256 256 0 0 0-58.88 505.216 320.128 320.128 0 0 0 629.76 0A256.128 256.128 0 0 0 768.35456 32v64a192 192 0 0 1 0 384z m-512-384h128v-64H256.35456v64z m384 0h128v-64h-128v64zM539.04256 306.816v-333.056a32.448 32.448 0 0 0-32-32.192 32.448 32.448 0 0 0-32 32.192V306.816l-36.096-36.096a32.192 32.192 0 0 0-45.056 0.192 31.616 31.616 0 0 0-0.192 45.056l90.88 90.88a31.36 31.36 0 0 0 22.528 9.152 30.08 30.08 0 0 0 22.4-9.088l90.88-90.944a32.192 32.192 0 0 0-0.192-45.056 31.616 31.616 0 0 0-45.056-0.192l-36.096 36.096z"  horiz-adv-x="1024" />

    
    <glyph glyph-name="wenjianjia" unicode="&#59240;" d="M912.486 443.959v0h-687.071c-25.518 0-47.091-16.669-54.521-39.729v0l-59.946-184.682v510.65h286.299c0-63.238 51.229-114.467 114.471-114.467v0h286.236v-114.469h57.229v114.469c0 31.588-25.639 57.236-57.229 57.236h-286.304c-31.586 0-57.234 25.645-57.234 57.231v0c0 31.589-25.58 57.234-57.234 57.234v0h-286.236c-31.587 0-57.234-25.646-57.234-57.234v-686.941c0-31.589 25.646-57.229 57.234-57.229h686.943c25.518 0 47.091 16.663 54.521 39.729h0.063l117.116 360.974c0.001 31.587-25.516 57.169-57.106 57.234v0zM800.864 43.253h-689.914l111.498 343.471h689.909l-111.494-343.471z"  horiz-adv-x="1024" />

    
    <glyph glyph-name="wenjian1" unicode="&#58964;" d="M401.42 374.648H218.979v-36.486H401.42v36.486z m0 109.465H218.979v-36.488H401.42v36.488zM218.979 119.232H620.35v36.486H218.979v-36.486z m523.736 304.806L517.522 666.556H164.247c-40.303 0-72.976-32.673-72.976-72.977v-583.812c0-40.305 32.673-72.977 72.976-72.977h510.835c40.305 0 72.977 32.672 72.977 72.977V411.138l-6.45 6.45 1.106 6.45zM529.129 599.757l159.726-170.375H565.618c-20.151 0-36.488 16.336-36.488 36.488V599.757z m182.441-589.99c0-20.152-16.336-36.49-36.488-36.49H164.247c-20.151 0-36.488 16.338-36.488 36.49V593.579c0 20.151 16.338 36.486 36.488 36.486h328.394V465.87c0-40.305 32.673-72.977 72.977-72.977H711.57v-383.126zM218.979 228.695H620.35v36.49H218.979v-36.49z m705.07 298.357l1.107 6.451-225.194 242.516H346.688c-40.303 0-72.976-32.672-72.976-72.977h36.49c0 20.152 16.334 36.49 36.486 36.49h328.394v-164.199c0-40.303 32.673-72.977 72.977-72.977h145.953v-383.125c0-20.152-16.336-36.49-36.488-36.49h-72.977v-36.488h72.977c40.305 0 72.977 32.675 72.977 72.978V520.602l-6.452 6.45z m-175.99 11.795c-20.152 0-36.488 16.336-36.488 36.486V709.221l159.727-170.375H748.059z"  horiz-adv-x="1024" />

    
    <glyph glyph-name="wj-wj-1" unicode="&#59160;" d="M886.7 648.4L713.4 822.6c-6 6-14.2 9.4-22.7 9.4H192c-35.3 0-64-28.7-64-64v-768c0-35.3 28.7-64 64-64h640c35.3 0 64 28.7 64 64V625.8c0 8.5-3.3 16.6-9.3 22.6zM832 32c0-17.7-14.3-32-32-32H224c-17.7 0-32 14.3-32 32V736c0 17.7 14.3 32 32 32h384v-160c0-35.3 28.7-64 64-64h160v-512zM704 608c-17.7 0-32 14.3-32 32V768l160-160H704zM671 224H287c-17.7 0-32-14.3-32-32s14.3-32 32-32h384c17.7 0 32 14.3 32 32s-14.3 32-32 32zM287 416c-17.7 0-32-14.3-32-32s14.3-32 32-32h384c17.7 0 32 14.3 32 32s-14.3 32-32 32H287zM287 544h192c17.7 0 32 14.3 32 32s-14.3 32-32 32H287c-17.7 0-32-14.3-32-32s14.3-32 32-32z"  horiz-adv-x="1024" />

    
    <glyph glyph-name="wenzhang2" unicode="&#59009;" d="M767.87712 800.98816 240.75776 800.98816c-72.67328 0-131.77856-58.10176-131.77856-129.49504l0-597.6064c0-71.38816 59.10016-129.49504 131.77856-129.49504l527.11424 0c72.64768 0 131.77856 58.10688 131.77856 129.49504L899.65056 671.49312C899.65568 742.8864 840.5248 800.98816 767.87712 800.98816zM294.46144 594.11456l227.23584 0c16.7936 0 30.40256-13.35296 30.40256-29.88544 0-16.47104-13.60896-29.85984-30.40256-29.85984L294.46144 534.36928c-16.78848 0-30.40256 13.38368-30.40256 29.85984C264.05888 580.7616 277.66784 594.11456 294.46144 594.11456zM724.41344 140.99456 294.46144 140.99456c-16.78848 0-30.40256 13.38368-30.40256 29.89056 0 16.50176 13.60896 29.89056 30.40256 29.89056l429.95712 0c16.7936 0 30.4384-13.3888 30.4384-29.89056C754.85696 154.37824 741.21216 140.99456 724.41344 140.99456zM724.41344 337.66912 294.46144 337.66912c-16.78848 0-30.40256 13.37856-30.40256 29.88544s13.60896 29.89056 30.40256 29.89056l429.95712 0c16.7936 0 30.4384-13.38368 30.4384-29.89056S741.21216 337.66912 724.41344 337.66912z"  horiz-adv-x="1024" />

    
    <glyph glyph-name="weibiaoti16" unicode="&#58914;" d="M552 424 552 896c258.4-1.6 470.4-213.6 472-472L552 424zM944 344c0-260.8-211.2-472-472-472-260.8 0-472 211.2-472 472 0 260.8 211.2 472 472 472l0-472L944 344C944 344 944 344 944 344z"  horiz-adv-x="1024" />

    
    <glyph glyph-name="717bianjiqi_zitibeijingyanse" unicode="&#58973;" d="M260.376 278.259c-9.641-9.362-14.46-22.46-14.46-39.31 0-14.791 5.24-26.861 15.726-36.223 10.479-9.36 24.331-14.037 41.557-14.037 23.961 0 43.705 8.422 59.245 25.27s23.309 37.999 23.309 63.455v29.77l-72.727-9.827c-25.462-3.373-43.008-9.737-52.65-19.098zM829.005 803.08H190.046c-70.58 0-127.791-57.212-127.791-127.792v-575.063c0-70.58 57.212-127.792 127.791-127.792h638.959c70.58 0 127.791 57.212 127.791 127.792V675.289c0.001 70.58-57.212 127.792-127.791 127.792z m-388.78-651.739h-54.472v48.019h-1.406C362.82 162.48 331.09 144.04 289.16 144.04c-30.146 0-54.1 8.146-71.883 24.433-17.789 16.281-26.677 38.28-26.677 65.985 0 58.024 34.35 91.818 103.051 101.365l92.1 12.919c0 50.727-20.971 76.094-62.9 76.094-37.251 0-71.231-12.543-101.926-37.628V440.28c30.887 19.277 66.547 28.92 106.98 28.92 74.873 0 112.316-39.31 112.316-117.934v-199.924z m344.392 39.17c-25.737-30.983-60.044-46.472-102.91-46.472-40.434 0-71.226 17.035-92.382 51.104H588.2v-43.8h-55.033V610.996H588.2v-202.73h1.125c24.331 40.62 59.902 60.931 106.7 60.931 38.938 0 69.87-13.712 92.803-41.135 22.932-27.425 34.401-64.912 34.401-112.458 0-52.412-12.875-94.111-38.612-125.094z m-103.754 233.2c-26.95 0-49.187-9.642-66.688-28.92-17.5-19.284-26.249-43.807-26.249-73.57v-42.12c0-25.085 8.14-46.286 24.428-63.596 16.287-17.322 36.688-25.973 61.212-25.973 29.2 0 52.037 11.227 68.515 33.692 16.466 22.466 24.709 53.533 24.709 93.225 0 32.752-7.68 58.822-23.029 78.202-15.347 19.373-36.318 29.06-62.898 29.06z"  horiz-adv-x="1024" />

    
    <glyph glyph-name="jingshi" unicode="&#58980;" d="M950.528 83.648l0 0.128L567.424 747.328 567.36 747.328C562.56 764.992 540.672 778.24 514.368 778.24c-26.496 0-48.32-13.568-52.928-31.424L69.312 67.712l0.32-0.448c-8.96-8.896-7.232-30.016 4.928-49.728 12.224-20.096 30.656-31.296 42.56-26.688l0.448-0.704 793.728 0 0.448 1.024c13.248-2.048 29.568 9.6 39.744 30.336C963.392 45.376 962.624 72.256 950.528 83.648zM458.816 538.688c0 29.376 23.872 53.184 53.184 53.184 29.44 0 53.184-23.808 53.184-53.184l0-274.112c0-29.312-23.744-53.184-53.184-53.184-29.312 0-53.184 23.872-53.184 53.184L458.816 538.688zM512 60.224c-31.936 0-57.856 25.92-57.856 57.92 0 31.936 25.92 57.728 57.856 57.728s57.856-25.792 57.856-57.728C569.856 86.208 543.936 60.224 512 60.224z"  horiz-adv-x="1024" />

    
    <glyph glyph-name="riqi" unicode="&#58902;" d="M551.4 326.2h51.2c7.7 0 12.8 5.1 12.8 12.8v51.2c0 7.7-5.1 12.8-12.8 12.8h-51.2c-7.7 0-12.8-5.1-12.8-12.8V339c0-7.7 5.1-12.8 12.8-12.8zM679.4 326.2h51.2c7.7 0 12.8 5.1 12.8 12.8v51.2c0 7.7-5.1 12.8-12.8 12.8h-51.2c-7.7 0-12.8-5.1-12.8-12.8V339c0-7.7 5.1-12.8 12.8-12.8zM423.4 326.2h51.2c7.7 0 12.8 5.1 12.8 12.8v51.2c0 7.7-5.1 12.8-12.8 12.8h-51.2c-7.7 0-12.8-5.1-12.8-12.8V339c0-7.7 5.1-12.8 12.8-12.8zM679.4 144.2h51.2c7.7 0 12.8 5.1 12.8 12.8v51.2c0 7.7-5.1 12.8-12.8 12.8h-51.2c-7.7 0-12.8-5.1-12.8-12.8V157c0-7.7 5.1-12.8 12.8-12.8zM551.4 144.2h51.2c7.7 0 12.8 5.1 12.8 12.8v51.2c0 7.7-5.1 12.8-12.8 12.8h-51.2c-7.7 0-12.8-5.1-12.8-12.8V157c0-7.7 5.1-12.8 12.8-12.8zM295.4 144.2h51.2c7.7 0 12.8 5.1 12.8 12.8v51.2c0 7.7-5.1 12.8-12.8 12.8h-51.2c-7.7 0-12.8-5.1-12.8-12.8V157c0-7.7 5.1-12.8 12.8-12.8zM295.4 326.2h51.2c7.7 0 12.8 5.1 12.8 12.8v51.2c0 7.7-5.1 12.8-12.8 12.8h-51.2c-7.7 0-12.8-5.1-12.8-12.8V339c0-7.7 5.1-12.8 12.8-12.8zM423.4 144.2h51.2c7.7 0 12.8 5.1 12.8 12.8v51.2c0 7.7-5.1 12.8-12.8 12.8h-51.2c-7.7 0-12.8-5.1-12.8-12.8V157c0-7.7 5.1-12.8 12.8-12.8zM803-5H219c-49.6 0-90 40.4-90 90V636c0 49.6 40.4 90 90 90h584c49.6 0 90-40.4 90-90v-551c0-49.6-40.4-90-90-90zM219 666c-16.5 0-30-13.5-30-30v-551c0-16.5 13.5-30 30-30h584c16.5 0 30 13.5 30 30V636c0 16.5-13.5 30-30 30H219zM177 559h668v-60H177zM342 620c-16.6 0-30 13.4-30 30v91c0 16.6 13.4 30 30 30s30-13.4 30-30v-91c0-16.6-13.4-30-30-30zM665 620c-16.6 0-30 13.4-30 30v91c0 16.6 13.4 30 30 30s30-13.4 30-30v-91c0-16.6-13.4-30-30-30z"  horiz-adv-x="1024" />

    
    <glyph glyph-name="quanbuxinwen" unicode="&#58883;" d="M512 832a448 448 0 1 1 0-896A448 448 0 0 1 512 832z m324.672-228.8a388.288 388.288 0 0 0 66.24-191.168h-224.128a1081.088 1081.088 0 0 1-14.08 151.424c60.672 8.512 118.4 21.888 171.968 39.744z m-38.528 48.32c-45.76-14.464-94.016-25.472-144.32-32.896a919.04 919.04 0 0 1-45.696 145.024 392.704 392.704 0 0 0 190.016-112.128z m-396.8-239.552c1.472 49.344 5.952 97.792 14.4 144.384 31.488-2.752 63.552-4.352 96.256-4.352s64.768 1.6 96.256 4.352c8.512-46.592 12.992-95.04 14.464-144.384H401.344z m221.312-56a965.504 965.504 0 0 0-14.4-144.384A1079.296 1079.296 0 0 1 512 216c-32.704 0-64.768-1.6-96.256-4.352a973.12 973.12 0 0 0-14.4 144.32h221.312zM484.8 774.656c9.024 0.576 17.984 1.344 27.2 1.344s18.176-0.768 27.2-1.344c23.808-49.664 43.136-104.896 57.408-163.456-27.84-2.432-56.064-3.904-84.608-3.904s-56.768 1.472-84.608 3.904c14.272 58.56 33.6 113.792 57.408 163.456z m-68.928-11.008c-18.688-45.056-33.92-93.696-45.632-145.024a920.704 920.704 0 0 0-144.384 32.896 392.96 392.96 0 0 0 190.016 112.128zM187.328 603.2c53.632-17.792 111.296-31.168 171.968-39.744-8.32-48.576-12.672-99.392-14.08-151.488H121.088a388.288 388.288 0 0 0 66.24 191.232z m0-438.4a388.288 388.288 0 0 0-66.24 191.168h224.128c1.408-52.032 5.76-102.848 14.016-151.424-60.608-8.576-118.272-21.888-171.904-39.744z m38.528-48.32a934.528 934.528 0 0 0 144.32 32.896c11.712-51.264 27.008-100.032 45.632-145.024a393.088 393.088 0 0 0-189.952 112.128z m313.344-123.136c-9.024-0.576-17.984-1.344-27.2-1.344s-18.176 0.768-27.2 1.344a832.192 832.192 0 0 0-57.408 163.456c27.84 2.432 56.064 3.904 84.608 3.904s56.768-1.408 84.608-3.904a837.888 837.888 0 0 0-57.408-163.456z m68.928 11.008c18.624 44.992 33.92 93.76 45.696 145.024 50.304-7.424 98.56-18.432 144.32-32.896a392.704 392.704 0 0 0-190.016-112.128z m228.544 160.448a988.992 988.992 0 0 1-171.968 39.744c8.256 48.576 12.608 99.392 14.08 151.424h224.128a388.288 388.288 0 0 0-66.24-191.168z"  horiz-adv-x="1024" />

    
    <glyph glyph-name="falv" unicode="&#58881;" d="M387.584 161.27999999999997c-13.824 0-27.648 5.12-37.888 15.872l-187.392 187.392c-10.24 10.24-15.872 23.552-15.872 37.888 0 14.336 5.632 27.648 15.872 37.888l79.36 79.36c20.992 20.992 55.296 20.992 75.776 0l187.392-187.392c20.992-20.992 20.992-54.784 0-75.776l-79.36-79.36c-10.24-10.752-24.064-15.872-37.888-15.872z m-168.96 240.64l168.96-168.96 60.928 60.928-168.96 168.96-60.928-60.928zM726.528 499.712c-13.824 0-27.648 5.12-37.888 15.872L501.248 702.976c-10.24 10.24-15.872 23.552-15.872 37.888 0 14.336 5.632 27.648 15.872 37.888l79.36 79.36c10.24 10.24 23.552 15.872 37.888 15.872 14.336 0 27.648-5.632 37.888-15.872L843.776 670.72c10.24-10.24 15.872-23.552 15.872-37.888 0-14.336-5.632-27.648-15.872-37.888l-79.36-79.36c-10.24-10.752-24.064-15.872-37.888-15.872z m-168.96 241.152l168.96-168.96 60.928 60.928-168.96 168.96-60.928-60.928zM308.736 450.56c-9.728 0-19.456 4.608-25.6 13.312-9.216 13.824-5.632 32.768 8.192 42.496 1.024 0.512 78.336 52.736 123.904 98.304 45.568 45.568 97.792 122.88 98.304 123.904 9.216 13.824 28.16 17.92 42.496 8.192 13.824-9.216 17.92-28.16 8.192-42.496-2.048-3.584-56.32-83.456-105.984-133.12s-129.536-103.424-133.12-105.984c-4.608-2.56-10.752-4.608-16.384-4.608zM466.944 292.352c-5.632 0-11.776 1.536-16.896 5.12-13.824 9.216-17.92 28.16-8.192 42.496 2.048 3.584 56.32 83.456 105.984 133.12s129.536 103.424 133.12 105.984c13.824 9.216 32.768 5.632 42.496-8.192 9.216-13.824 5.632-32.768-8.192-42.496-1.024-0.512-78.336-52.736-123.904-98.304-45.568-45.568-97.792-122.88-98.304-123.904-6.656-9.216-16.384-13.824-26.112-13.824zM932.352-3.5839999999999463c-23.552 0-47.104 8.704-65.024 26.624l-338.432 338.432c-12.288 12.288-18.944 28.672-18.944 45.568 0 17.408 6.656 33.792 18.944 45.568l41.472 41.472c23.552 23.552 61.44 23.552 84.992 0l342.016-342.016c35.84-35.84 35.84-93.696 0-129.536-17.92-17.408-41.472-26.112-65.024-26.112zM612.864 450.56l-40.448-40.448c-0.512-0.512-1.024-1.536-1.024-2.56s0.512-2.048 1.024-2.56l338.432-338.432c11.776-11.776 31.232-11.776 43.008 0 11.776 11.776 11.776 31.232 0 43.008L612.864 450.56zM589.312 4.096000000000004H79.872c-16.384 0-29.696 13.312-29.696 29.696s13.312 29.696 29.696 29.696h509.44c16.384 0 29.696-13.312 29.696-29.696s-13.312-29.696-29.696-29.696zM640.512-105.47199999999998H29.184c-15.872 0-29.184 12.8-29.184 29.184 0 15.872 12.8 29.184 29.184 29.184h611.328c15.872 0 29.184-12.8 29.184-29.184-0.512-16.384-13.312-29.184-29.184-29.184z"  horiz-adv-x="1024" />

    
    <glyph glyph-name="ic_download" unicode="&#58887;" d="M554.656 59.744v409.6h-85.344v-409.6l-98.144 98.144-59.744-59.744 200.544-200.544 200.544 200.544-59.744 59.744zM806.4 640c-21.344 145.056-145.056 256-294.4 256S234.656 785.056 217.6 640C93.856 631.456 0 529.056 0 405.344c0-128 106.656-234.656 234.656-234.656h64v85.344h-64c-85.344 0-149.344 64-149.344 149.344s64 149.344 149.344 149.344h4.256l59.744-29.856V597.408c0 119.456 93.856 213.344 213.344 213.344s213.344-93.856 213.344-213.344v-72.544l59.744 29.856h4.256c85.344 0 149.344-64 149.344-149.344s-64-149.344-149.344-149.344h-64v-85.344h64c128 0 234.656 106.656 234.656 234.656 0 123.744-93.856 226.144-217.6 234.656z"  horiz-adv-x="1024" />

    
    <glyph glyph-name="xinwengonggao" unicode="&#59023;" d="M918.528 417.792h-189.44c-18.432 0-33.28-14.848-33.28-33.28s14.848-33.28 33.28-33.28h189.44c18.432 0 33.28 14.848 33.28 33.28s-14.848 33.28-33.28 33.28zM728.576 532.48c5.632 0 11.264 1.536 16.384 4.608l177.152 102.4c15.872 9.216 21.504 29.696 12.288 45.568-9.216 15.872-29.696 21.504-45.568 12.288l-177.152-102.4c-15.872-9.216-21.504-29.696-12.288-45.568 6.656-10.752 17.92-16.896 29.184-16.896zM922.112 130.048l-177.152 102.4c-15.872 9.216-36.352 3.584-45.568-12.288s-3.584-36.352 12.288-45.568l177.152-102.4c5.12-3.072 10.752-4.608 16.384-4.608 11.264 0 22.528 6.144 28.672 16.896 9.728 15.872 4.608 36.352-11.776 45.568zM585.728 724.992c-18.432 11.776-40.96 13.824-60.928 4.608l-1.536-0.512-254.976-144.896H136.192c-35.328 0-64-28.672-64-64v-277.504c0-34.304 28.16-62.976 62.464-64l133.12-3.072 254.976-140.8 3.072-1.536c8.192-3.584 16.896-5.12 25.6-5.12 12.288 0 24.576 3.584 35.328 10.752 17.92 11.776 28.672 31.744 28.672 53.248V671.232c-0.512 22.016-11.264 41.984-29.696 53.76z m-37.376-628.736l-262.656 145.408-146.944 3.584V517.632h146.944l262.656 148.992v-570.368zM256.512 451.072v-143.36c0-18.432 14.848-33.28 33.28-33.28s33.28 14.848 33.28 33.28v143.36c0 18.432-14.848 33.28-33.28 33.28s-33.28-14.848-33.28-33.28z"  horiz-adv-x="1024" />

    
    <glyph glyph-name="liulan" unicode="&#58885;" d="M391.506455 351.707838c0-16.134061 3.187439-32.266923 9.316683-47.173017 6.128445-14.91109 15.201294-28.584819 26.53441-39.998281 11.328919-11.410464 24.904315-20.547269 39.707878-26.720883 14.799566-6.177612 30.817506-9.382639 46.840642-9.382639 16.019938 0 32.037678 3.205027 46.837244 9.382639 14.803763 6.173614 28.379958 15.31042 39.713075 26.720883 11.329119 11.413662 20.400768 25.087391 26.530213 39.998281 6.133641 14.905894 9.32108 31.039955 9.32108 47.173017 0 16.139258-3.187439 32.27212-9.32108 47.177014-6.129444 14.91109-15.201294 28.584819-26.530213 39.995283-11.333116 11.414661-24.909311 20.551666-39.713075 26.72508-14.799566 6.176612-30.818505 9.382639-46.837244 9.382639-16.022936 0-32.040876-3.206026-46.840642-9.382639-14.803763-6.173614-28.378759-15.31042-39.707878-26.72508-11.333116-11.409464-20.406165-25.083194-26.53441-39.995283C394.693694 383.980157 391.506455 367.847096 391.506455 351.707838L391.506455 351.707838zM954.352045 381.494842c0 0-0.507856 11.74044-108.413696 113.323966-154.240625 134.341117-291.72521 153.629239-393.98268 140.883881-102.258269-12.745359-179.208697-68.201359-185.362124-71.649222-48.565273-27.21255-185.707091-162.582569-193.911728-179.461125-19.495582-40.300276 7.181931-80.599554 7.181931-80.599554s221.272977-239.593156 422.366635-239.593156 296.513964 87.000214 336.868603 118.685331c40.35464 31.691313 89.94042 89.21771 115.252659 123.315392C972.138386 344.637232 954.352045 381.494842 954.352045 381.494842L954.352045 381.494842zM513.906068 144.727171c-113.498848 0-205.508465 92.66957-205.508465 206.980867 0 114.315294 92.009418 206.985064 205.508265 206.985064 113.496849 0 205.504468-92.66957 205.504468-206.985064C719.410336 237.396741 627.402917 144.727171 513.906068 144.727171L513.906068 144.727171z"  horiz-adv-x="1024" />

    
    <glyph glyph-name="yonghuming" unicode="&#59072;" d="M219.428571 603.428571C219.428571 441.856 350.427429 310.857143 512 310.857143 673.572571 310.857143 804.571429 441.856 804.571429 603.428571 804.571429 765.001143 673.572571 896 512 896 350.427429 896 219.428571 765.001143 219.428571 603.428571L219.428571 603.428571 219.428571 603.428571ZM292.571429 237.714286C130.998857 237.714286 0 106.715429 0-54.857143L0-54.857143C0-95.252809 32.910537-128 72.822649-128L951.177351-128C991.396191-128 1024-95.27936 1024-54.857143L1024-54.857143C1024 106.715429 893.001143 237.714286 731.428571 237.714286L292.571429 237.714286 292.571429 237.714286Z"  horiz-adv-x="1024" />

    
    <glyph glyph-name="shijian" unicode="&#58886;" d="M511.15 832.145c-246.39 0-446.143-199.686-446.143-446.078 0-246.386 199.754-446.106 446.142-446.106 246.357 0 446.077 199.72 446.077 446.106 0 246.392-199.72 446.078-446.077 446.078z m223.108-495.311h-236.87c-5.01 0-9.819 0.997-14.23 2.87-13.09 5.543-22.317 18.54-22.317 33.669V610.245c0 20.205 16.368 36.575 36.547 36.575 20.247 0 36.614-16.37 36.614-36.575v-200.257h200.256c20.212 0 36.575-16.368 36.575-36.58 0-20.206-16.368-36.574-36.575-36.574z m0 0"  horiz-adv-x="1024" />

    
    <glyph glyph-name="dayin" unicode="&#58976;" d="M291.5-29.2c-22.1 0-40 17.9-40 40V174.4H128.8c-16.6 0-30 13.4-30 30V511.2c0 59.5 48.3 107.8 107.8 107.8h44.9V757.2c0 22.1 17.9 40 40 40h441c22.1 0 40-17.9 40-40V619h44.9c59.5 0 107.8-48.3 107.8-107.8v-306.8c0-16.6-13.4-30-30-30H772.5v-163.6c0-22.1-17.9-40-40-40h-441z m418.1 62.9v217H314.4v-217h395.2z m152.7 203.6V511.2c0 24.8-20.1 44.9-44.9 44.9H206.6c-24.8 0-44.9-20.1-44.9-44.9v-273.9h89.8v70.3c0 3.3 2.7 6 6 6h509c3.3 0 6-2.7 6-6v-70.3h89.8zM709.6 619V734.3H314.4V619h395.2zM283 428.9c-17.3 0-31.4 14.1-31.4 31.4s14.1 31.4 31.4 31.4h229c17.3 0 31.4-14.1 31.4-31.4s-14.1-31.4-31.4-31.4H283z"  horiz-adv-x="1024" />

    
    <glyph glyph-name="guanbi" unicode="&#58922;" d="M924.549 558.293c-22.553 53.321-54.833 101.202-95.943 142.312-41.11 41.11-88.991 73.39-142.313 95.943-55.221 23.357-113.861 35.2-174.293 35.2S392.928 819.905 337.707 796.549c-53.321-22.553-101.202-54.833-142.312-95.943-41.11-41.11-73.39-88.991-95.943-142.312-23.357-55.222-35.2-113.862-35.2-174.294s11.843-119.072 35.199-174.293c22.553-53.321 54.833-101.202 95.943-142.313 41.11-41.11 88.991-73.391 142.312-95.943 55.221-23.356 113.862-35.199 174.293-35.199s119.072 11.843 174.293 35.199c53.321 22.553 101.202 54.833 142.313 95.943s73.391 88.991 95.943 142.313c23.356 55.221 35.199 113.861 35.199 174.293s-11.842 119.072-35.198 174.293zM512-0.252c-211.877 0-384.252 172.375-384.252 384.252S300.123 768.252 512 768.252 896.252 595.877 896.252 384 723.877-0.252 512-0.252zM693.02 565.02c-12.497 12.497-31.492 13.763-42.427 2.828L512 429.255 373.407 567.848c-10.935 10.935-29.93 9.668-42.427-2.828s-13.763-31.492-2.828-42.427L466.745 384 328.152 245.407c-10.935-10.935-9.668-29.93 2.828-42.427 12.497-12.496 31.492-13.763 42.427-2.828L512 338.745l138.593-138.593c10.935-10.935 29.93-9.668 42.427 2.828 12.496 12.497 13.763 31.492 2.828 42.427L557.255 384l138.593 138.593c10.934 10.934 9.668 29.93-2.828 42.427z"  horiz-adv-x="1024" />

    
    <glyph glyph-name="icon-" unicode="&#59001;" d="M512 49.066667a42.666667 42.666667 0 0 0-42.666667 42.666666v640a42.666667 42.666667 0 1 0 85.333334 0v-640a42.666667 42.666667 0 0 0-42.666667-42.666666zM512 6.4a42.666667 42.666667 0 0 0-30.293333 12.8l-256 256a42.666667 42.666667 0 0 0 0 60.16 42.666667 42.666667 0 0 0 60.586666 0L512 109.653333l225.706667 225.706667a42.666667 42.666667 0 0 0 60.586666 0 42.666667 42.666667 0 0 0 0-60.16l-256-256a42.666667 42.666667 0 0 0-30.293333-12.8zM896-78.933333H128a42.666667 42.666667 0 0 0 0 85.333333h768a42.666667 42.666667 0 0 0 0-85.333333z"  horiz-adv-x="1024" />

    
    <glyph glyph-name="zhiding" unicode="&#58923;" d="M576.8 751.9h382.6v-79.5H576.8zM699.8 136.2h259.6v-79.5H699.8zM711.3 546.6h248v-79.5h-248zM806 341.4h153.3v-79.5H806zM496.8-40.3H279.5c-22 0-39.8 17.8-39.8 39.8V162.1H103.1c-13.8 0-26.6 7.1-33.8 18.8-7.2 11.7-7.9 26.3-1.8 38.6L352.6 792c13.5 27 57.7 27 71.2 0l285.1-572.4c6.1-12.3 5.4-27-1.8-38.6-7.3-11.7-20-18.8-33.8-18.8H536.6v-162.6c0-22.2-17.8-39.9-39.8-39.9z m-177.5 79.5h137.8V201.8c0 22 17.8 39.8 39.8 39.8H609L388.2 685.1 167.3 241.6h112.2c22 0 39.8-17.8 39.8-39.8v-162.6z"  horiz-adv-x="1024" />

    
    <glyph glyph-name="xiajiang" unicode="&#59025;" d="M554.666667 853.430656C554.666667 876.941056 535.728427 896 512 896L512 896C488.43584 896 469.333333 876.744491 469.333333 853.429632L469.333333 13.384875 218.411008 264.3072C201.803136 280.915115 174.948437 280.987093 158.169899 264.208555L158.169899 264.208555C141.507499 247.546197 141.600597 220.438101 158.182016 203.85664L474.943232-112.904576C483.129771-121.091072 499.405824-128 510.960768-128 524.629675-128 540.698496-121.241557 549.035477-112.904576L865.796693 203.85664C882.465749 220.525739 882.587349 247.430016 865.808811 264.208555L865.808811 264.208555C849.146453 280.870912 822.08704 280.826581 805.569963 264.309504L554.666667 13.406165 554.666667 853.430656Z"  horiz-adv-x="1024" />

    
    <glyph glyph-name="pass-2-copy" unicode="&#58905;" d="M527.651 846.131c-246.934 0-447.112-200.178-447.112-447.111s200.18-447.112 447.112-447.112 447.111 200.178 447.111 447.111c0.001 246.934-200.178 447.112-447.111 447.112zM527.651 15.781c-211.657 0-383.238 171.581-383.238 383.238 0 211.657 171.581 383.238 383.238 383.238 211.657 0 383.238-171.581 383.238-383.238s-171.581-383.238-383.238-383.238zM717.514 540.851c-7.435 0-14.365-2.777-19.523-7.826l-234.72-230.346-118.301 118.274c-5.172 5.171-12.183 8.019-19.742 8.019-8.3 0-16.57-3.51-22.693-9.632-12.142-12.144-12.863-31.179-1.607-42.434l138.678-138.651c0.359-0.416 0.72-0.829 1.107-1.223 0.631-0.647 1.315-1.287 2.033-1.909 5.168-5.141 12.158-7.973 19.694-7.973 0.207 0 0.412 0.006 0.619 0.013 0.187-0.007 0.375-0.011 0.564-0.011 7.349 0 14.203 2.71 19.328 7.636 0.75 0.628 1.482 1.298 2.181 1.996 0.509 0.509 0.934 0.993 1.312 1.423l83.166 81.404 171.964 168.921c11.372 11.136 10.854 30.178-1.156 42.448-6.141 6.273-14.489 9.872-22.905 9.872z"  horiz-adv-x="1024" />

    
    <glyph glyph-name="xinxi2" unicode="&#58949;" d="M367.219283 499.282775c0 17.457966-14.447972 31.905938-31.905938 31.905938l-46.955908 0c-17.457966 0-31.905938-14.447972-31.905938-31.905938 0-17.457966 14.447972-31.905938 31.905938-31.905938l46.955908 0C352.771311 467.376837 367.219283 481.824809 367.219283 499.282775zM736.244562 467.376837c17.457966 0 31.905938 14.447972 31.905938 31.905938 0 17.457966-14.447972 31.905938-31.905938 31.905938L455.71311 531.188713c-17.457966 0-31.905938-14.447972-31.905938-31.905938 0-17.457966 14.447972-31.905938 31.905938-31.905938L736.244562 467.376837zM511.699001 882.756026c-282.939447 0-511.699001-200.465608-511.699001-447.285126 0-141.469724 75.249853-267.287478 192.037625-349.159318l0-167.957672c0-25.885949 28.293945-41.537919 49.965902-28.293945L385.279248-23.252205c13.243974 7.825985 18.661964 24.079953 13.243974 39.129924 0 0 0 0.601999 0 0.601999-6.621987 18.661964-28.895944 25.885949-45.751911 15.651969l-69.831864-42.139918c-12.641975-7.223986-28.293945 1.805996-28.293945 16.253968l1.805996 114.981775c-115.583774 69.229865-191.435626 184.21164-191.435626 314.243386 0 211.903586 200.465608 383.473251 447.887125 383.473251 247.421517 0 447.887125-171.569665 447.887125-383.473251 0-211.903586-200.465608-383.473251-447.887125-383.473251-6.621987 0-13.243974 0-19.865961 0.601999-22.875955 1.203998-37.323927-22.875955-27.691946-43.343915 0-0.601999 0.601999-1.203998 0.601999-1.805996 4.815991-10.23398 14.447972-18.059965 25.885949-18.661964 6.621987-0.601999 13.845973-0.601999 21.069959-0.601999 282.939447 0 512.300999 200.465608 512.300999 447.285126C1024 682.290417 794.638448 882.756026 511.699001 882.756026zM352.169312 275.339212l320.263374 0c17.457966 0 31.905938 14.447972 31.905938 31.905938 0 17.457966-14.447972 31.905938-31.905938 31.905938L352.169312 339.151088c-17.457966 0-31.905938-14.447972-31.905938-31.905938C320.263374 289.787184 334.109347 275.339212 352.169312 275.339212z"  horiz-adv-x="1026" />

    
    <glyph glyph-name="dengji" unicode="&#58896;" d="M681.472 528.384H345.088c-26.112 0-47.616 21.504-47.616 47.616V700.416c0 26.112 21.504 47.616 47.616 47.616h57.344C409.6 802.816 456.704 844.8 513.024 844.8s103.424-41.984 111.104-96.768h57.344c26.112 0 47.616-21.504 47.616-47.616v-124.928c0-26.112-21.504-47.104-47.616-47.104zM345.088 701.952c-1.024 0-1.536-0.512-1.536-1.536v-124.928c0-1.024 0.512-1.536 1.536-1.536h336.384c1.024 0 1.536 0.512 1.536 1.536V700.416c0 1.024-0.512 1.536-1.536 1.536h-104.96l2.048 25.088c0 2.048 0.512 4.096 0.512 5.632 0 36.352-29.696 66.048-66.048 66.048s-66.048-29.696-66.048-66.048c0-1.536 0-3.584 0.512-5.632l2.048-25.088H345.088z m-27.136-578.56h235.52v-46.08h-235.52v46.08z m0 146.432h389.12v-46.08h-389.12v46.08z m0 146.432h389.12v-46.08h-389.12v46.08z m492.032-493.056H214.016c-31.744 0-57.856 26.112-57.856 57.856V603.136c0 31.744 25.6 57.856 57.856 57.856h81.92v39.424c0 26.112 21.504 47.616 47.616 47.616h57.856c7.68 54.784 54.272 97.28 111.104 97.28s103.936-42.496 111.104-97.28H680.96c26.112 0 47.616-21.504 47.616-47.616V660.48h81.92c31.744 0 57.856-26.112 57.856-57.856v-622.08c-0.512-31.232-26.624-57.344-58.368-57.344zM214.016 614.4c-6.144 0-11.776-5.12-11.776-11.264v-622.08c0-6.144 5.12-11.264 11.776-11.264h596.48c6.144 0 11.264 5.12 11.264 11.264V603.136c0 6.144-5.12 11.264-11.264 11.264h-128V699.904c0 1.024-0.512 1.536-1.536 1.536h-104.96l2.048 25.088c0 2.048 0.512 4.096 0.512 5.632 0 36.352-29.696 66.048-66.048 66.048-36.352 0-66.048-29.696-66.048-66.048 0-1.536 0-3.584 0.512-5.632l2.048-25.088H343.04c-1.024 0-1.536-0.512-1.536-1.536v-86.016H214.016V614.4zM689.152 154.624l18.944-38.912 43.008-6.144-31.232-30.208 7.68-42.496-38.4 20.48-38.4-20.48 7.68 42.496-31.232 30.208 43.008 6.144zM689.152 184.832c-52.224 0-94.208-41.984-94.208-94.208s41.984-94.208 94.208-94.208 94.208 41.984 94.208 94.208-41.984 94.208-94.208 94.208z m0-177.152c-46.08 0-82.944 37.376-82.944 82.944 0 46.08 37.376 82.944 82.944 82.944 46.08 0 82.944-37.376 82.944-82.944 0-46.08-36.864-82.944-82.944-82.944z"  horiz-adv-x="1024" />

    
    <glyph glyph-name="butongguo" unicode="&#58931;" d="M511.563 830.856c-246.87 0-446.998-200.128-446.998-446.998S264.693-63.14 511.563-63.14 958.56 136.989 958.56 383.859 758.433 830.856 511.563 830.856zM785.211 110.21c-35.561-35.561-76.954-63.473-123.03-82.961-47.672-20.164-98.348-30.388-150.619-30.388s-102.946 10.224-150.619 30.388c-46.076 19.488-87.469 47.401-123.03 82.961-35.561 35.561-63.473 76.954-82.962 123.03-20.164 47.672-30.388 98.348-30.388 150.618s10.224 102.946 30.388 150.619c19.489 46.076 47.401 87.469 82.962 123.03 35.56 35.561 76.954 63.473 123.03 82.962 47.672 20.164 98.348 30.388 150.619 30.388s102.946-10.224 150.619-30.388c46.076-19.489 87.469-47.401 123.03-82.962 35.561-35.56 63.473-76.954 82.962-123.03 20.164-47.672 30.388-98.348 30.388-150.619s-10.224-102.946-30.388-150.618c-19.489-46.076-47.401-87.47-82.962-123.03zM690.087 559.017c-11.715 11.716-30.711 11.716-42.426 0L513.535 424.891 379.41 559.017c-11.716 11.716-30.711 11.716-42.427 0-11.715-11.716-11.715-30.711 0-42.427l134.126-134.126-134.126-134.125c-11.715-11.716-11.715-30.71 0-42.426 5.858-5.858 13.536-8.787 21.213-8.787s15.355 2.929 21.213 8.787l134.126 134.126 134.126-134.126c5.857-5.858 13.535-8.787 21.213-8.787s15.355 2.929 21.213 8.787c11.716 11.716 11.716 30.71 0 42.426L555.961 382.465 690.087 516.59c11.716 11.716 11.716 30.711 0 42.427z"  horiz-adv-x="1024" />

    
    <glyph glyph-name="zhineng" unicode="&#58932;" d="M605.067636 269.242182l-23.249454-13.451637V151.272727h-46.545455v124.346182l75.473455 75.473455A23.249455 23.249455 0 1 1 577.838545 384L512 318.184727 446.184727 384a23.249455 23.249455 0 1 1-32.907636-32.907636L488.727273 275.618909V151.272727h-46.545455v104.517818l-23.226182 13.451637a186.391273 186.391273 0 0 0-89.460363 198.609454c15.732364 79.709091 84.875636 141.102545 165.818182 148.154182a186.205091 186.205091 0 0 0 109.754181-346.763636M512 663.272727C383.488 663.272727 279.272727 559.080727 279.272727 430.545455a232.634182 232.634182 0 0 1 116.363637-201.588364V128a23.272727 23.272727 0 0 1 23.272727-23.272727h186.181818a23.272727 23.272727 0 0 1 23.272727 23.272727v100.957091A232.587636 232.587636 0 0 1 744.727273 430.545455c0 128.535273-104.192 232.727273-232.727273 232.727272M442.181818 81.454545l139.636364 0 0-23.272727-139.636364 0 0 23.272727ZM465.454545 34.909091l93.09091 0 0-23.272727-93.09091 0 0 23.272727ZM512 756.363636a11.636364 11.636364 0 0 0 11.636364-11.636363v-46.545455a11.636364 11.636364 0 1 0-23.272728 0v46.545455A11.636364 11.636364 0 0 0 512 756.363636z m263.307636-109.056a11.636364 11.636364 0 0 0 0-16.453818l-32.930909-32.930909a11.636364 11.636364 0 1 0-16.453818 16.453818l32.930909 32.930909a11.636364 11.636364 0 0 0 16.453818 0zM884.363636 384a11.636364 11.636364 0 0 0-11.636363-11.636364h-46.545455a11.636364 11.636364 0 1 0 0 23.272728h46.545455a11.636364 11.636364 0 0 0 11.636363-11.636364z m-109.056-263.307636a11.636364 11.636364 0 0 0-16.453818 0l-32.930909 32.930909a11.636364 11.636364 0 1 0 16.453818 16.453818l32.930909-32.930909a11.636364 11.636364 0 0 0 0-16.453818z m-526.615272 0a11.636364 11.636364 0 0 0 0 16.453818l32.930909 32.930909a11.636364 11.636364 0 1 0 16.453818-16.453818l-32.930909-32.930909a11.636364 11.636364 0 0 0-16.453818 0zM139.636364 384a11.636364 11.636364 0 0 0 11.636363 11.636364h46.545455a11.636364 11.636364 0 1 0 0-23.272728h-46.545455A11.636364 11.636364 0 0 0 139.636364 384zM248.692364 647.307636a11.636364 11.636364 0 0 0 16.453818 0l32.930909-32.930909a11.636364 11.636364 0 1 0-16.453818-16.453818L248.692364 630.853818a11.636364 11.636364 0 0 0 0 16.453818z"  horiz-adv-x="1024" />

    
    <glyph glyph-name="wenjian" unicode="&#59283;" d="M544 768h-288c-19.2 0-32-12.8-32-32v-704c0-19.2 12.8-32 32-32h512c19.2 0 32 12.8 32 32v480h-192c-35.2 0-64 28.8-64 64v192z m64-12.8v-179.2h179.2l-179.2 179.2z m-352 76.8h352c9.6 0 16-3.2 22.4-9.6l224-224c6.4-6.4 9.6-12.8 9.6-22.4v-544c0-54.4-41.6-96-96-96h-512c-54.4 0-96 41.6-96 96v704c0 54.4 41.6 96 96 96z m64-352h160c19.2 0 32-12.8 32-32s-12.8-32-32-32h-160c-19.2 0-32 12.8-32 32s12.8 32 32 32z m0-128h384c19.2 0 32-12.8 32-32s-12.8-32-32-32h-384c-19.2 0-32 12.8-32 32s12.8 32 32 32z m0-128h384c19.2 0 32-12.8 32-32s-12.8-32-32-32h-384c-19.2 0-32 12.8-32 32s12.8 32 32 32z"  horiz-adv-x="1024" />

    
    <glyph glyph-name="data" unicode="&#58897;" d="M512 896C296.192 896 64 830.944 64 688v-608C64-62.879999999999995 296.192-128 512-128c215.776 0 448 65.12 448 208v608C960 830.944 727.744 896 512 896z m384-816c0-79.488-171.936-144-384-144-212.096 0-384 64.512-384 144v119.552C194.112 131.42399999999998 353.6 96 512 96s317.888 35.424 384 103.552V80z m0 192h-0.128c0-0.32 0.128-0.672 0.128-0.992C896 192 724.064 128 512 128S128 192 128 271.00800000000004c0 0.32 0.128 0.672 0.128 0.992H128v119.552C194.112 323.424 353.6 288 512 288s317.888 35.424 384 103.552V272z m0 192h-0.128c0-0.32 0.128-0.672 0.128-0.992C896 384 724.064 320 512 320S128 384 128 463.008c0 0.32 0.128 0.672 0.128 0.992H128v109.952C211.872 510.048 365.6 480 512 480s300.128 30.048 384 93.952V464zM512 544C299.904 544 128 608.512 128 688 128 767.552 299.904 832 512 832c212.064 0 384-64.448 384-144 0-79.488-171.936-144-384-144zM800 64m-32 0a32 32 0 1 1 64 0 32 32 0 1 1-64 0ZM800 256m-32 0a32 32 0 1 1 64 0 32 32 0 1 1-64 0ZM800 448m-32 0a32 32 0 1 1 64 0 32 32 0 1 1-64 0Z"  horiz-adv-x="1024" />

    
    <glyph glyph-name="zhanghaodenglu" unicode="&#59149;" d="M640 353.28c76.8 44.8 128 128 128 217.6 0 140.8-115.2 256-256 256s-256-108.8-256-249.6c0-96 51.2-172.8 128-217.6-166.4-51.2-281.6-204.8-288-384 0-25.6 12.8-38.4 32-38.4s32 12.8 32 32c6.4 192 160 345.6 352 345.6s345.6-153.6 352-345.6c0-19.2 12.8-32 32-32s32 12.8 32 32c-6.4 179.2-121.6 332.8-288 384z m-320 224c0 108.8 83.2 192 192 192s192-83.2 192-192-83.2-192-192-192-192 83.2-192 192z"  horiz-adv-x="1024" />

    
    <glyph glyph-name="sousuo" unicode="&#58895;" d="M870.5 68.6L682.8 256.3c45 55.4 69.5 124 69.5 196.4 0 83.5-32.5 161.9-91.5 220.9s-137.5 91.5-221 91.5-161.9-32.5-220.9-91.5-91.5-137.4-91.5-220.9 32.5-161.9 91.5-220.9 137.4-91.5 220.9-91.5c73.6 0 143.3 25.3 199.2 71.8l187.5-187.5c12.1-12.1 31.9-12.1 44 0 12.1 12 12.1 31.8 0 44zM439.8 202.4c-137.9 0-250.1 112.2-250.1 250.1s112.2 250.2 250.1 250.2 250.1-112.2 250.1-250.1-112-250.2-250.1-250.2z"  horiz-adv-x="1024" />

    
    <glyph glyph-name="zhuye" unicode="&#58943;" d="M1009.494329 445.771984l-0.299985 0.299985L559.11632 876.650945c-25.998731 25.79874-68.19667 25.79874-94.295395 0L14.742901 445.971974l-0.299985-0.299985c-14.099312-13.999316-18.299106-34.898296-10.699478-53.297398 7.599629-18.399102 25.39876-30.298521 45.397783-30.29852h122.993995c2.599873 0 4.599775-1.999902 4.599775-4.499781v-418.779552c0-36.798203 30.09853-66.796738 66.996729-66.796738h134.093452c36.998193 0 66.996729 29.998535 66.996729 66.796738V259.581075c0 12.299399 10.099507 22.298911 22.498902 22.298911h89.395634c12.399395 0 22.498901-9.999512 22.498902-22.298911v-320.784337c0-36.798203 30.09853-66.796738 66.996729-66.796738h134.093452c36.898198 0 66.996729 29.998535 66.896734 66.896734V357.676285c0 2.499878 2.099897 4.49978 4.599775 4.499781h122.993994c19.999023 0 37.798154 11.899419 45.397784 30.29852 7.599629 18.299106 3.399834 39.298081-10.699478 53.297398z m-30.398516-36.398223c-1.099946-2.799863-3.399834-2.799863-4.199794-2.799863h-122.993995c-27.098677 0-49.097603-21.998926-49.097603-48.997608v-418.779552c0-12.299399-10.099507-22.298911-22.498901-22.298911H646.212068c-12.399395 0-22.498901 9.999512-22.498902 22.298911V259.581075c0 36.798203-30.09853 66.796738-66.996729 66.796739h-89.395634c-36.898198 0-66.996729-29.998535-66.996729-66.796739v-320.784337c0-12.299399-10.099507-22.298911-22.498902-22.298911H243.73172c-12.399395 0-22.498901 9.999512-22.498901 22.298911V357.57629c0 26.998682-21.998926 48.997608-49.097603 48.997608h-122.993995c-0.699966 0-2.999854 0-4.199794 2.799863-0.999951 2.499878 0.299985 4.0998 0.899956 4.699771l449.978028 430.578975 0.299985 0.299986c8.79957 8.699575 22.998877 8.699575 31.798448 0l0.299985-0.299986 449.978028-430.578975c0.699966-0.599971 1.899907-2.199893 0.899956-4.699771z"  horiz-adv-x="1024" />

    
    <glyph glyph-name="mima" unicode="&#58907;" d="M800 448v-352c0-35.3-28.7-64-64-64H288c-35.3 0-64 28.7-64 64V448h576m0 64H224c-35.3 0-64-28.7-64-64v-352c0-70.7 57.3-128 128-128h448c70.7 0 128 57.3 128 128V448c0 35.3-28.7 64-64 64zM512 736c42.7 0 82.9-16.6 113.1-46.9C655.4 658.9 672 618.7 672 576v-64H352v64c0 42.7 16.6 82.9 46.9 113.1S469.3 736 512 736m0 64c-123.7 0-224-100.3-224-224v-128h448V576c0 123.7-100.3 224-224 224zM512 336c-17.7 0-32-14.3-32-32v-128c0-17.7 14.3-32 32-32s32 14.3 32 32V304c0 17.7-14.3 32-32 32z"  horiz-adv-x="1024" />

    
    <glyph glyph-name="gengduo" unicode="&#59000;" d="M377.018182-2.327273c-9.309091 0-18.618182 2.327273-25.6 9.309091-13.963636 13.963636-13.963636 34.909091 0 48.872727l321.163636 321.163637L351.418182 698.181818c-13.963636 13.963636-13.963636 34.909091 0 48.872727 13.963636 13.963636 34.909091 13.963636 48.872727 0L744.727273 402.618182c13.963636-13.963636 13.963636-34.909091 0-48.872727L400.290909 6.981818c-6.981818-6.981818-16.290909-9.309091-23.272727-9.309091z"  horiz-adv-x="1024" />

    
    <glyph glyph-name="zufangtiqu" unicode="&#58893;" d="M736.7 0.7H285c-59.9 0-108.6 46.4-108.6 103.4V596.5c0 57 48.7 103.4 108.6 103.4h451.6c59.9 0 108.6-46.4 108.6-103.4v-492.4c0-57-48.7-103.4-108.5-103.4zM285 639.1c-26.3 0-47.8-19.1-47.8-42.6v-492.4c0-23.5 21.4-42.6 47.8-42.6h451.6c26.3 0 47.8 19.1 47.8 42.6V596.5c0 23.5-21.4 42.6-47.8 42.6H285zM681.1 643.7H340.6v85.1c0 57 46.4 103.4 103.4 103.4h133.8c57 0 103.4-46.4 103.4-103.4v-85.1z m-279.7 60.8h218.9v24.3c0 23.5-19.1 42.6-42.6 42.6H444c-23.5 0-42.6-19.1-42.6-42.6v-24.3zM404.5 146.7c-16.8 0-30.4 13.6-30.4 30.4V523.6c0 16.8 13.6 30.4 30.4 30.4 16.8 0 30.4-13.6 30.4-30.4v-346.5c0-16.8-13.6-30.4-30.4-30.4zM617.3 146.7c-16.8 0-30.4 13.6-30.4 30.4V523.6c0 16.8 13.6 30.4 30.4 30.4s30.4-13.6 30.4-30.4v-346.5c0-16.8-13.7-30.4-30.4-30.4zM404.5-58.5c-16.8 0-30.4 13.6-30.4 30.4v36.5c0 16.8 13.6 30.4 30.4 30.4 16.8 0 30.4-13.6 30.4-30.4v-36.5c0-16.8-13.6-30.4-30.4-30.4zM617.3-58.5c-16.8 0-30.4 13.6-30.4 30.4v36.5c0 16.8 13.6 30.4 30.4 30.4s30.4-13.6 30.4-30.4v-36.5c0-16.8-13.7-30.4-30.4-30.4z"  horiz-adv-x="1024" />

    
    <glyph glyph-name="piliangbianji" unicode="&#58903;" d="M855.2 556.5c-16.2 0-29.3-13.1-29.3-29.3v-341.4h-78.2V434c0 16.2-13.1 29.3-29.3 29.3-16.2 0-29.3-13.1-29.3-29.3v-406.6H163.5V553.1h369.3c16.2 0 29.3 13.1 29.3 29.3 0 16.2-13.1 29.3-29.3 29.3H303.1V710H656.3c16.2 0 29.3 13.1 29.3 29.3s-13.1 29.3-29.3 29.3H511 303.2c-32.3 0-58.5-26.3-58.5-58.5v-98.3h-81.1c-32.3 0-58.5-26.3-58.5-58.5v-525.7c0-32.3 26.3-58.5 58.5-58.5h525.7c32.3 0 58.5 26.3 58.5 58.5v100H826c32.3 0 58.5 26.3 58.5 58.5V527.2c-0.1 16.2-13.1 29.3-29.3 29.3zM243 146h271.6c16.2 0 29.3 13.1 29.3 29.3 0 16.2-13.1 29.3-29.3 29.3H243c-16.2 0-29.3-13.1-29.3-29.3 0.1-16.2 13.2-29.3 29.3-29.3zM243 279.6h202c16.2 0 29.3 13.1 29.3 29.3 0 16.2-13.1 29.3-29.3 29.3H243c-16.2 0-29.3-13.1-29.3-29.3 0.1-16.2 13.2-29.3 29.3-29.3zM606.6 175.3m-31.1 0a31.1 31.1 0 1 1 62.2 0 31.1 31.1 0 1 1-62.2 0ZM908.1 787.5c-13.7 13.7-35.9 13.7-49.7 0L528.8 457.9c-13.7-13.7-13.7-35.9 0-49.7 6.9-6.9 15.8-10.3 24.8-10.3s18 3.4 24.8 10.3L908 737.8c13.8 13.7 13.8 36 0.1 49.7z"  horiz-adv-x="1024" />

    


  </font>
</defs>
</svg>
